<?xml version="1.0" encoding="UTF-8"?>
<svg width="56px" height="84px" viewBox="0 0 56 84" version="1.1" xmlns="http://www.w3.org/2000/svg" xmlns:xlink="http://www.w3.org/1999/xlink">
    <!-- Generator: sketchtool 58 (101010) - https://sketch.com -->
    <title>B60F12EC-3EC7-45C6-9B85-7E778DEAF0AF@1.00x</title>
    <desc>Created with sketchtool.</desc>
    <defs>
        <linearGradient x1="50%" y1="3.64710172%" x2="50%" y2="100%" id="linearGradient-1">
            <stop stop-color="#EEDFA2" offset="0%"></stop>
            <stop stop-color="#A9935A" offset="58.853881%"></stop>
            <stop stop-color="#FEE3A5" offset="100%"></stop>
        </linearGradient>
        <path d="M23.402,33.574 C25.009,34.502 26,36.218 26,38.074 L26,45.93 C26,47.787 25.009,49.502 23.402,50.43 L16.597,54.359 C14.99,55.287 13.009,55.287 11.402,54.359 L4.597,50.43 C2.99,49.502 2,47.787 2,45.93 L2,38.074 C2,36.218 2.99,34.502 4.597,33.574 L11.402,29.646 C13.009,28.718 14.99,28.718 16.597,29.646 L23.402,33.574 Z M12.313,31.429 L5.686,35.255 C4.642,35.858 4,36.971 4,38.177 L4,45.828 C4,47.033 4.642,48.147 5.686,48.75 L12.313,52.575 C13.357,53.178 14.642,53.178 15.686,52.575 L22.313,48.75 C23.357,48.147 24,47.033 24,45.828 L24,38.177 C24,36.971 23.357,35.858 22.313,35.255 L15.686,31.429 C14.642,30.826 13.357,30.826 12.313,31.429 L12.313,31.429 Z M15.385,33.567 L20.614,36.585 C21.471,37.08 22,37.995 22,38.986 L22,45.023 C22,46.013 21.471,46.928 20.614,47.423 L15.385,50.442 C14.528,50.937 13.471,50.937 12.614,50.442 L7.385,47.423 C6.528,46.928 6,46.013 6,45.023 L6,38.986 C6,37.995 6.528,37.08 7.385,36.585 L12.614,33.567 C13.471,33.072 14.528,33.072 15.385,33.567 L15.385,33.567 Z M11,45.004 L17,45.004 L17,39.004 L11,39.004 L11,45.004 Z" id="path-2"></path>
        <filter x="-2.1%" y="-1.9%" width="104.2%" height="107.7%" filterUnits="objectBoundingBox" id="filter-3">
            <feOffset dx="0" dy="1" in="SourceAlpha" result="shadowOffsetOuter1"></feOffset>
            <feColorMatrix values="0 0 0 0 0   0 0 0 0 0   0 0 0 0 0  0 0 0 0.5 0" type="matrix" in="shadowOffsetOuter1"></feColorMatrix>
        </filter>
        <filter x="-2.1%" y="-1.9%" width="104.2%" height="107.7%" filterUnits="objectBoundingBox" id="filter-4">
            <feOffset dx="0" dy="1" in="SourceAlpha" result="shadowOffsetInner1"></feOffset>
            <feComposite in="shadowOffsetInner1" in2="SourceAlpha" operator="arithmetic" k2="-1" k3="1" result="shadowInnerInner1"></feComposite>
            <feColorMatrix values="0 0 0 0 0.996078431   0 0 0 0 0.980392157   0 0 0 0 0.788235294  0 0 0 0.551628059 0" type="matrix" in="shadowInnerInner1"></feColorMatrix>
        </filter>
    </defs>
    <g id="Web-Spritesheet" stroke="none" stroke-width="1" fill="none" fill-rule="evenodd">
        <g id="robux_28_dark">
            <path d="M23.402,5.571 C25.009,6.499 26,8.215 26,10.071 L26,17.927 C26,19.784 25.009,21.499 23.402,22.427 L16.597,26.356 C14.99,27.284 13.009,27.284 11.402,26.356 L4.597,22.427 C2.99,21.499 2,19.784 2,17.927 L2,10.071 C2,8.215 2.99,6.499 4.597,5.571 L11.402,1.643 C13.009,0.715 14.99,0.715 16.597,1.643 L23.402,5.571 Z M12.313,3.426 L5.686,7.252 C4.642,7.855 4,8.968 4,10.174 L4,17.825 C4,19.03 4.642,20.144 5.686,20.747 L12.313,24.572 C13.357,25.175 14.642,25.175 15.686,24.572 L22.313,20.747 C23.357,20.144 24,19.03 24,17.825 L24,10.174 C24,8.968 23.357,7.855 22.313,7.252 L15.686,3.426 C14.642,2.823 13.357,2.823 12.313,3.426 L12.313,3.426 Z M15.385,5.564 L20.614,8.582 C21.471,9.077 22,9.992 22,10.983 L22,17.02 C22,18.01 21.471,18.925 20.614,19.42 L15.385,22.439 C14.528,22.934 13.471,22.934 12.614,22.439 L7.385,19.42 C6.528,18.925 6,18.01 6,17.02 L6,10.983 C6,9.992 6.528,9.077 7.385,8.582 L12.614,5.564 C13.471,5.069 14.528,5.069 15.385,5.564 L15.385,5.564 Z M11,17.001 L17,17.001 L17,11.001 L11,11.001 L11,17.001 Z" id="Fill-1" fill="#FFFFFF"></path>
            <path d="M51.402,5.571 C53.009,6.499 54,8.215 54,10.071 L54,17.927 C54,19.784 53.009,21.499 51.402,22.427 L44.597,26.356 C42.99,27.284 41.009,27.284 39.402,26.356 L32.597,22.427 C30.99,21.499 30,19.784 30,17.927 L30,10.071 C30,8.215 30.99,6.499 32.597,5.571 L39.402,1.643 C41.009,0.715 42.99,0.715 44.597,1.643 L51.402,5.571 Z M40.313,3.426 L33.686,7.252 C32.642,7.855 32,8.968 32,10.174 L32,17.825 C32,19.03 32.642,20.144 33.686,20.747 L40.313,24.572 C41.357,25.175 42.642,25.175 43.686,24.572 L50.313,20.747 C51.357,20.144 52,19.03 52,17.825 L52,10.174 C52,8.968 51.357,7.855 50.313,7.252 L43.686,3.426 C42.642,2.823 41.357,2.823 40.313,3.426 L40.313,3.426 Z M43.385,5.564 L48.614,8.582 C49.471,9.077 50,9.992 50,10.983 L50,17.02 C50,18.01 49.471,18.925 48.614,19.42 L43.385,22.439 C42.528,22.934 41.471,22.934 40.614,22.439 L35.385,19.42 C34.528,18.925 34,18.01 34,17.02 L34,10.983 C34,9.992 34.528,9.077 35.385,8.582 L40.614,5.564 C41.471,5.069 42.528,5.069 43.385,5.564 L43.385,5.564 Z M39,17.001 L45,17.001 L45,11.001 L39,11.001 L39,17.001 Z" id="Fill-1" fill-opacity="0.7" fill="#FFFFFF"></path>
            <g id="Fill-1-Copy-2">
                <use fill="black" fill-opacity="1" filter="url(#filter-3)" xlink:href="#path-2"></use>
                <use fill="url(#linearGradient-1)" fill-rule="evenodd" xlink:href="#path-2"></use>
                <use fill="black" fill-opacity="1" filter="url(#filter-4)" xlink:href="#path-2"></use>
            </g>
            <path d="M23.402,61.574 C25.009,62.502 26,64.218 26,66.074 L26,73.93 C26,75.787 25.009,77.502 23.402,78.43 L16.597,82.359 C14.99,83.287 13.009,83.287 11.402,82.359 L4.597,78.43 C2.99,77.502 2,75.787 2,73.93 L2,66.074 C2,64.218 2.99,62.502 4.597,61.574 L11.402,57.646 C13.009,56.718 14.99,56.718 16.597,57.646 L23.402,61.574 Z M12.313,59.429 L5.686,63.255 C4.642,63.858 4,64.971 4,66.177 L4,73.828 C4,75.033 4.642,76.147 5.686,76.75 L12.313,80.575 C13.357,81.178 14.642,81.178 15.686,80.575 L22.313,76.75 C23.357,76.147 24,75.033 24,73.828 L24,66.177 C24,64.971 23.357,63.858 22.313,63.255 L15.686,59.429 C14.642,58.826 13.357,58.826 12.313,59.429 L12.313,59.429 Z M15.385,61.567 L20.614,64.585 C21.471,65.08 22,65.995 22,66.986 L22,73.023 C22,74.013 21.471,74.928 20.614,75.423 L15.385,78.442 C14.528,78.937 13.471,78.937 12.614,78.442 L7.385,75.423 C6.528,74.928 6,74.013 6,73.023 L6,66.986 C6,65.995 6.528,65.08 7.385,64.585 L12.614,61.567 C13.471,61.072 14.528,61.072 15.385,61.567 L15.385,61.567 Z M11,73.004 L17,73.004 L17,67.004 L11,67.004 L11,73.004 Z" id="Fill-1-Copy-2" fill="#FFFFFF"></path>
        </g>
    </g>
</svg>