<?xml version="1.0" encoding="utf-8"?>
<!-- Generator: Adobe Illustrator 21.1.0, SVG Export Plug-In . SVG Version: 6.00 Build 0)  -->
<!DOCTYPE svg PUBLIC "-//W3C//DTD SVG 1.1//EN" "http://www.w3.org/Graphics/SVG/1.1/DTD/svg11.dtd">
<svg version="1.1" id="games" xmlns="http://www.w3.org/2000/svg" xmlns:xlink="http://www.w3.org/1999/xlink" x="0px" y="0px"
	 width="56px" height="952px" viewBox="0 0 56 952" style="enable-background:new 0 0 56 952;" xml:space="preserve" preserveAspectRatio="none">
<style type="text/css">
	.st0{fill:none;stroke:#757575;stroke-width:2;stroke-linecap:round;stroke-linejoin:round;stroke-miterlimit:10;}
	.st1{fill:#191919;stroke:#191919;stroke-width:2;stroke-linecap:round;stroke-linejoin:round;stroke-miterlimit:10;}
	.st2{fill:none;stroke:#191919;stroke-width:2;stroke-linecap:round;stroke-linejoin:round;stroke-miterlimit:10;}
	.st3{fill:#E2231A;}
	.st4{fill:#B8B8B8;}
	.st5{fill:#F68802;}
	.st6{fill:#02B757;}
	.st7{fill:none;stroke:#191919;stroke-width:2;stroke-linecap:round;stroke-linejoin:round;}
	.st8{fill:none;stroke:#757575;stroke-width:2;stroke-linecap:round;stroke-linejoin:round;}
	.st9{fill:none;stroke:#FFFFFF;stroke-width:2;stroke-linecap:round;stroke-linejoin:round;}
	.st10{fill:#D86868;}
	.st11{fill:#757575;}
	.st12{fill:none;stroke:#D86868;stroke-width:2;stroke-linecap:round;stroke-linejoin:round;stroke-miterlimit:10;}
</style>
<g id="profile">
	<circle class="st0" cx="14" cy="876" r="5"/>
	<path class="st0" d="M14,884c0,0,5,0,6,1s2,6,2,6s-3.1,2-8,2s-8-2-8-2s1-5,2-6S14,884,14,884z"/>
</g>
<polygon id="like_1_" class="st0" points="9,853 13,848 14,844 17,844 18,846 18,849 16,853 23,853 24,856 20,864 10,864 4,862 
	4,853 "/>
<g id="sharetochat-on">
	<path class="st1" d="M39,815l8,5l-8,5v-3c-4,0-7,2-8,6c0-7,4-10,8-10V815z"/>
	<polygon class="st1" points="51,820 53,820 53,832 46,832 41,837 41,832 35,832 35,827 36,827 38,830 51,822 	"/>
</g>
<g id="sharetochat">
	<path class="st2" d="M11,815l8,5l-8,5v-3c-4,0-7,2-8,6c0-7,4-10,8-10V815z"/>
	<polyline class="st2" points="22,820 25,820 25,832 18,832 13,837 13,832 7,832 7,827 	"/>
</g>
<g id="red-ping">
	<path class="st3" d="M7,807H3c-0.6,0-1-0.4-1-1v-8c0-0.6,0.4-1,1-1h4c0.6,0,1,0.4,1,1v8C8,806.6,7.6,807,7,807z"/>
	<path class="st4" d="M16,807h-4c-0.6,0-1-0.4-1-1v-12c0-0.6,0.4-1,1-1h4c0.6,0,1,0.4,1,1v12C17,806.6,16.6,807,16,807z"/>
	<path class="st4" d="M25,807h-4c-0.6,0-1-0.4-1-1v-16c0-0.6,0.4-1,1-1h4c0.6,0,1,0.4,1,1v16C26,806.6,25.6,807,25,807z"/>
</g>
<g id="orange-ping">
	<path class="st5" d="M7,779H3c-0.6,0-1-0.4-1-1v-8c0-0.6,0.4-1,1-1h4c0.6,0,1,0.4,1,1v8C8,778.6,7.6,779,7,779z"/>
	<path class="st5" d="M16,779h-4c-0.6,0-1-0.4-1-1v-12c0-0.6,0.4-1,1-1h4c0.6,0,1,0.4,1,1v12C17,778.6,16.6,779,16,779z"/>
	<path class="st4" d="M25,779h-4c-0.6,0-1-0.4-1-1v-16c0-0.6,0.4-1,1-1h4c0.6,0,1,0.4,1,1v16C26,778.6,25.6,779,25,779z"/>
</g>
<g id="green-ping">
	<path class="st6" d="M7,751H3c-0.6,0-1-0.4-1-1v-8c0-0.6,0.4-1,1-1h4c0.6,0,1,0.4,1,1v8C8,750.6,7.6,751,7,751z"/>
	<path class="st6" d="M16,751h-4c-0.6,0-1-0.4-1-1v-12c0-0.6,0.4-1,1-1h4c0.6,0,1,0.4,1,1v12C17,750.6,16.6,751,16,751z"/>
	<path class="st6" d="M25,751h-4c-0.6,0-1-0.4-1-1v-16c0-0.6,0.4-1,1-1h4c0.6,0,1,0.4,1,1v16C26,750.6,25.6,751,25,751z"/>
</g>
<g id="lab_x5F_gray1">
	<line class="st7" x1="9" y1="703" x2="19" y2="703"/>
	<g>
		<line class="st7" x1="8" y1="717" x2="20" y2="717"/>
		<polyline class="st7" points="11,703 11,711 3,725 25,725 17,711 17,703 		"/>
	</g>
</g>
<g id="lab_x5F_gray2">
	<line class="st8" x1="37" y1="675" x2="47" y2="675"/>
	<g>
		<line class="st8" x1="36" y1="689" x2="48" y2="689"/>
		<polyline class="st8" points="39,675 39,683 31,697 53,697 45,683 45,675 		"/>
	</g>
</g>
<g id="lab_x5F_white">
	<line class="st9" x1="9" y1="675" x2="19" y2="675"/>
	<g>
		<line class="st9" x1="8" y1="689" x2="20" y2="689"/>
		<polyline class="st9" points="11,675 11,683 3,697 25,697 17,683 17,675 		"/>
	</g>
</g>
<polygon id="dislike2-on" class="st10" points="41,669 39,666 39,663 40.4,660 33,660 31,656 35,647 46,647 53,650 53,660 48,660 
	44,665 43,669 "/>
<polygon id="dislike-gray" class="st11" points="13,669 11,666 11,663 12.4,660 5,660 3,656 7,647 18,647 25,650 25,660 20,660 
	16,665 15,669 "/>
<polygon id="like2-on" class="st6" points="42.9,619 45,622 45,625 43.5,628 50.9,628 53,632.1 48.5,641 37.8,641 31,638 31,628 
	35.9,628 39.9,623 40.9,619 "/>
<polygon id="like-gray" class="st11" points="14.9,619 17,622 17,625 15.5,628 22.9,628 25,632.1 20.5,641 9.8,641 3,638 3,628 
	7.9,628 11.9,623 12.9,619 "/>
<g id="personaltransport">
	<g>
		<path class="st6" d="M14,613c-5.5,0-11-1.5-11-4.5c0-0.8,0.4-2,2.6-3c0.5-0.2,1.1,0,1.3,0.5s0,1.1-0.5,1.3c-1.1,0.5-1.4,1-1.4,1.2
			c0,0.9,3.4,2.5,9,2.5s9-1.6,9-2.5c0-0.2-0.3-0.7-1.4-1.2c-0.5-0.2-0.7-0.8-0.5-1.3s0.8-0.7,1.3-0.5c2.1,1,2.6,2.2,2.6,3
			C25,611.5,19.5,613,14,613z"/>
	</g>
	<g>
		<path class="st6" d="M19,609H9c-0.6,0-1-0.4-1-1v-15c0-0.6,0.4-1,1-1h10c0.6,0,1,0.4,1,1v15C20,608.6,19.6,609,19,609z M10,607h8
			v-13h-8V607z"/>
	</g>
	<g>
		<path class="st6" d="M16,603c-0.6,0-1-0.4-1-1v-2c0-0.6,0.4-1,1-1s1,0.4,1,1v2C17,602.6,16.6,603,16,603z"/>
	</g>
</g>
<g id="social">
	<g>
		<path class="st6" d="M21,573c-2.2,0-4-1.8-4-4s1.8-4,4-4s4,1.8,4,4S23.2,573,21,573z M21,567c-1.1,0-2,0.9-2,2s0.9,2,2,2
			s2-0.9,2-2S22.1,567,21,567z"/>
	</g>
	<g>
		<path class="st6" d="M7,573c-2.2,0-4-1.8-4-4s1.8-4,4-4s4,1.8,4,4S9.2,573,7,573z M7,567c-1.1,0-2,0.9-2,2s0.9,2,2,2s2-0.9,2-2
			S8.1,567,7,567z"/>
	</g>
	<g>
		<path class="st6" d="M14,585c-2.2,0-4-1.8-4-4s1.8-4,4-4s4,1.8,4,4S16.2,585,14,585z M14,579c-1.1,0-2,0.9-2,2s0.9,2,2,2
			s2-0.9,2-2S15.1,579,14,579z"/>
	</g>
	<g>
		<path class="st6" d="M8,579.3c-0.3,0-0.6-0.1-0.8-0.3c-1.5-1.6-2.3-3.8-2.3-6c0-0.4,0-0.8,0.1-1.1c0.1-0.5,0.6-0.9,1.1-0.9
			c0.5,0.1,0.9,0.6,0.9,1.1c0,0.3-0.1,0.6-0.1,0.9c0,1.7,0.6,3.4,1.7,4.6c0.4,0.4,0.3,1-0.1,1.4C8.5,579.2,8.2,579.3,8,579.3z"/>
	</g>
	<g>
		<path class="st6" d="M17,581.4c-0.4,0-0.8-0.2-0.9-0.6c-0.2-0.5,0-1.1,0.6-1.3c2.1-0.8,3.6-2.6,4.2-4.7c0.1-0.5,0.7-0.9,1.2-0.7
			c0.5,0.1,0.9,0.7,0.7,1.2c-0.7,2.7-2.7,5-5.3,6.1C17.3,581.4,17.1,581.4,17,581.4z"/>
	</g>
	<g>
		<path class="st6" d="M19,567.8c-0.2,0-0.4-0.1-0.6-0.2c-1.7-1.4-4-1.9-6.1-1.3c-0.5,0.1-1.1-0.2-1.2-0.7c-0.1-0.5,0.2-1.1,0.7-1.2
			c2.7-0.7,5.7-0.1,7.9,1.7c0.4,0.3,0.5,1,0.2,1.4C19.6,567.6,19.3,567.8,19,567.8z"/>
	</g>
</g>
<g id="buildingtool">
	<path class="st6" d="M14,558c-0.1,0-0.2,0-0.3-0.1l-3-1c-0.4-0.1-0.7-0.5-0.7-0.9v-9.5l-3.6-2.7C6.1,543.6,6,543.3,6,543v-5
		c0-0.3,0.1-0.6,0.4-0.8l4-3c0.3-0.2,0.7-0.3,1-0.1s0.6,0.5,0.6,0.9v4.5l2,1.3l2-1.3V535c0-0.4,0.2-0.7,0.6-0.9
		c0.3-0.2,0.7-0.1,1,0.1l4,3c0.3,0.2,0.4,0.5,0.4,0.8v5c0,0.3-0.1,0.6-0.4,0.8l-3.6,2.7v9.5c0,0.4-0.3,0.8-0.7,0.9l-3,1
		C14.2,558,14.1,558,14,558z M12,555.3l2,0.7l2-0.7V546c0-0.3,0.1-0.6,0.4-0.8l3.6-2.7v-4l-2-1.5v3c0,0.3-0.2,0.6-0.4,0.8l-3,2
		c-0.3,0.2-0.8,0.2-1.1,0l-3-2c-0.3-0.2-0.4-0.5-0.4-0.8v-3l-2,1.5v4l3.6,2.7c0.3,0.2,0.4,0.5,0.4,0.8v9.3H12z"/>
</g>
<g id="navigation">
	<g>
		<path class="st6" d="M18.6,524c-0.2,0-0.3,0-0.4-0.1l-4.2-2.1l-4.2,2.1c-0.4,0.2-0.8,0.1-1.1-0.2s-0.4-0.8-0.2-1.1l4.6-10
			c0.2-0.4,0.5-0.6,0.9-0.6s0.7,0.2,0.9,0.6l4.6,10c0.2,0.4,0.1,0.8-0.2,1.1C19.1,523.9,18.9,524,18.6,524z M14,519.7
			c0.2,0,0.3,0,0.4,0.1l2.1,1l-2.5-5.4l-2.5,5.4l2.1-1C13.7,519.7,13.8,519.7,14,519.7z"/>
	</g>
	<g>
		<path class="st6" d="M14,530c-6.6,0-12-5.4-12-12s5.4-12,12-12s12,5.4,12,12C26,524.6,20.6,530,14,530z M14,508
			c-5.5,0-10,4.5-10,10s4.5,10,10,10s10-4.5,10-10S19.5,508,14,508z"/>
	</g>
	<g>
		<path class="st6" d="M5,519H3c-0.6,0-1-0.4-1-1s0.4-1,1-1h2c0.6,0,1,0.4,1,1S5.6,519,5,519z"/>
	</g>
	<g>
		<path class="st6" d="M25,519h-2c-0.6,0-1-0.4-1-1s0.4-1,1-1h2c0.6,0,1,0.4,1,1S25.6,519,25,519z"/>
	</g>
	<g>
		<path class="st6" d="M14,510c-0.6,0-1-0.4-1-1v-2c0-0.6,0.4-1,1-1s1,0.4,1,1v2C15,509.6,14.6,510,14,510z"/>
	</g>
	<g>
		<path class="st6" d="M14,530c-0.6,0-1-0.4-1-1v-2c0-0.6,0.4-1,1-1s1,0.4,1,1v2C15,529.6,14.6,530,14,530z"/>
	</g>
</g>
<g id="musical">
	<g>
		<path class="st6" d="M11,498c-0.6,0-1-0.4-1-1v-15c0-0.5,0.4-0.9,0.8-1l12-2c0.3,0,0.6,0,0.8,0.2c0.2,0.2,0.4,0.5,0.4,0.8v16
			c0,0.6-0.4,1-1,1s-1-0.4-1-1v-14.8l-10,1.7V497C12,497.6,11.6,498,11,498z"/>
	</g>
	<g>
		<path class="st6" d="M8,501c-2.2,0-4-1.8-4-4s1.8-4,4-4s4,1.8,4,4S10.2,501,8,501z M8,495c-1.1,0-2,0.9-2,2s0.9,2,2,2s2-0.9,2-2
			S9.1,495,8,495z"/>
	</g>
	<g>
		<path class="st6" d="M20,500c-2.2,0-4-1.8-4-4s1.8-4,4-4s4,1.8,4,4S22.2,500,20,500z M20,494c-1.1,0-2,0.9-2,2s0.9,2,2,2
			s2-0.9,2-2S21.1,494,20,494z"/>
	</g>
	<g>
		<path class="st6" d="M11,489c-0.5,0-0.9-0.3-1-0.8s0.3-1.1,0.8-1.2l12-2c0.5-0.1,1.1,0.3,1.2,0.8s-0.3,1.1-0.8,1.2l-12,2
			C11.1,489,11.1,489,11,489z"/>
	</g>
</g>
<g id="explosive">
	<g>
		<path class="st6" d="M14,474c-4.4,0-8-3.6-8-8s3.6-8,8-8s8,3.6,8,8S18.4,474,14,474z M14,460c-3.3,0-6,2.7-6,6s2.7,6,6,6
			s6-2.7,6-6S17.3,460,14,460z"/>
	</g>
	<g>
		<path class="st6" d="M17,460c-0.6,0-1-0.4-1-1v-2h-4v2c0,0.6-0.4,1-1,1s-1-0.4-1-1v-3c0-0.6,0.4-1,1-1h6c0.6,0,1,0.4,1,1v3
			C18,459.6,17.6,460,17,460z"/>
	</g>
	<g>
		<path class="st6" d="M14,457c-0.6,0-1-0.4-1-1c0-2.1,1.1-3.8,3.1-4.6c2-0.8,4.3-0.5,5.6,0.8c0.4,0.4,0.4,1,0,1.4s-1,0.4-1.4,0
			c-0.7-0.7-2.2-0.9-3.5-0.4c-0.7,0.3-1.8,1-1.8,2.7C15,456.6,14.6,457,14,457z"/>
	</g>
</g>
<g id="powerup">
	<path class="st6" d="M13,446c-0.1,0-0.2,0-0.3,0c-0.4-0.1-0.7-0.5-0.7-1v-5h-2c-0.3,0-0.6-0.1-0.8-0.4C9,439.4,9,439,9,438.7
		l1.6-5.7H8c-0.4,0-0.7-0.2-0.9-0.5c-0.2-0.3-0.2-0.7,0-1l6-9c0.4-0.6,1.3-0.6,1.7,0l6,9c0.2,0.3,0.2,0.7,0,1s-0.5,0.5-0.9,0.5h-3.2
		l-0.5,2H18c0.4,0,0.7,0.2,0.9,0.5c0.2,0.3,0.2,0.7,0,1l-5,9C13.7,445.8,13.4,446,13,446z M11.3,438H13c0.6,0,1,0.4,1,1v2.1l2.3-4.1
		H15c-0.3,0-0.6-0.1-0.8-0.4c-0.2-0.2-0.3-0.6-0.2-0.9l1-4c0.1-0.4,0.5-0.8,1-0.8h2.1l-4.1-6.2L9.9,431H12c0.3,0,0.6,0.1,0.8,0.4
		s0.2,0.6,0.2,0.9L11.3,438z"/>
</g>
<g id="range">
	<g>
		<path class="st6" d="M14,415c-5,0-9-4-9-9s4-9,9-9s9,4,9,9S19,415,14,415z M14,399c-3.9,0-7,3.1-7,7s3.1,7,7,7s7-3.1,7-7
			S17.9,399,14,399z"/>
	</g>
	<g>
		<path class="st6" d="M14,404c-1.1,0-2,0.9-2,2s0.9,2,2,2s2-0.9,2-2S15.1,404,14,404L14,404z"/>
	</g>
	<g>
		<path class="st6" d="M14,401c-0.6,0-1-0.4-1-1v-4c0-0.6,0.4-1,1-1s1,0.4,1,1v4C15,400.6,14.6,401,14,401z"/>
	</g>
	<g>
		<path class="st6" d="M14,417c-0.6,0-1-0.4-1-1v-4c0-0.6,0.4-1,1-1s1,0.4,1,1v4C15,416.6,14.6,417,14,417z"/>
	</g>
	<g>
		<path class="st6" d="M24,407h-4c-0.6,0-1-0.4-1-1s0.4-1,1-1h4c0.6,0,1,0.4,1,1S24.6,407,24,407z"/>
	</g>
	<g>
		<path class="st6" d="M8,407H4c-0.6,0-1-0.4-1-1s0.4-1,1-1h4c0.6,0,1,0.4,1,1S8.6,407,8,407z"/>
	</g>
</g>
<g id="melee">
	<path class="st6" d="M15,390h-2c-0.5,0-0.9-0.3-1-0.8l-0.8-4.2H8c-0.6,0-1-0.4-1-1v-3c0-0.6,0.4-1,1-1h2.8L9,372.2
		c-0.1-0.3,0-0.6,0.2-0.8l4-5c0.4-0.5,1.2-0.5,1.6,0l4,5c0.2,0.2,0.3,0.5,0.2,0.8l-1.7,7.8H20c0.6,0,1,0.4,1,1v3c0,0.6-0.4,1-1,1
		h-3.2l-0.8,4.2C15.9,389.7,15.5,390,15,390z M13.8,388h0.4l0.8-4.2c0.1-0.5,0.5-0.8,1-0.8h3v-1h-3c-0.3,0-0.6-0.1-0.8-0.4
		c-0.2-0.2-0.3-0.5-0.2-0.8l1.9-8.5l-2.9-3.7l-2.9,3.7l1.9,8.5c0.1,0.3,0,0.6-0.2,0.8c-0.2,0.2-0.5,0.4-0.8,0.4H9v1h3
		c0.5,0,0.9,0.3,1,0.8L13.8,388z"/>
</g>
<g id="nogear">
	<g>
		<path class="st6" d="M11,354c-0.3,0-0.5-0.1-0.7-0.3c-0.4-0.4-0.4-1,0-1.4l6-6c0.4-0.4,1-0.4,1.4,0s0.4,1,0,1.4l-6,6
			C11.5,353.9,11.3,354,11,354z"/>
	</g>
	<g>
		<path class="st6" d="M17,354c-0.3,0-0.5-0.1-0.7-0.3l-6-6c-0.4-0.4-0.4-1,0-1.4s1-0.4,1.4,0l6,6c0.4,0.4,0.4,1,0,1.4
			C17.5,353.9,17.3,354,17,354z"/>
	</g>
	<g>
		<path class="st6" d="M3,346c-0.6,0-1-0.4-1-1v-3c0-0.6,0.4-1,1-1h3c0.6,0,1,0.4,1,1s-0.4,1-1,1H4v2C4,345.6,3.6,346,3,346z"/>
	</g>
	<g>
		<path class="st6" d="M12,343h-2c-0.6,0-1-0.4-1-1s0.4-1,1-1h2c0.6,0,1,0.4,1,1S12.6,343,12,343z"/>
	</g>
	<g>
		<path class="st6" d="M18,343h-2c-0.6,0-1-0.4-1-1s0.4-1,1-1h2c0.6,0,1,0.4,1,1S18.6,343,18,343z"/>
	</g>
	<g>
		<path class="st6" d="M12,359h-2c-0.6,0-1-0.4-1-1s0.4-1,1-1h2c0.6,0,1,0.4,1,1S12.6,359,12,359z"/>
	</g>
	<g>
		<path class="st6" d="M18,359h-2c-0.6,0-1-0.4-1-1s0.4-1,1-1h2c0.6,0,1,0.4,1,1S18.6,359,18,359z"/>
	</g>
	<g>
		<path class="st6" d="M25,346c-0.6,0-1-0.4-1-1v-2h-2c-0.6,0-1-0.4-1-1s0.4-1,1-1h3c0.6,0,1,0.4,1,1v3C26,345.6,25.6,346,25,346z"
			/>
	</g>
	<g>
		<path class="st6" d="M25,359h-3c-0.6,0-1-0.4-1-1s0.4-1,1-1h2v-2c0-0.6,0.4-1,1-1s1,0.4,1,1v3C26,358.6,25.6,359,25,359z"/>
	</g>
	<g>
		<path class="st6" d="M6,359H3c-0.6,0-1-0.4-1-1v-3c0-0.6,0.4-1,1-1s1,0.4,1,1v2h2c0.6,0,1,0.4,1,1S6.6,359,6,359z"/>
	</g>
	<g>
		<path class="st6" d="M3,352c-0.6,0-1-0.4-1-1v-2c0-0.6,0.4-1,1-1s1,0.4,1,1v2C4,351.6,3.6,352,3,352z"/>
	</g>
	<g>
		<path class="st6" d="M25,352c-0.6,0-1-0.4-1-1v-2c0-0.6,0.4-1,1-1s1,0.4,1,1v2C26,351.6,25.6,352,25,352z"/>
	</g>
</g>
<g id="partialgears">
	<g>
		<path class="st6" d="M10,332H3c-0.6,0-1-0.4-1-1v-15c0-0.6,0.4-1,1-1h5c0.2,0,0.4,0.1,0.6,0.2l2.7,1.8H17c0.6,0,1,0.4,1,1
			s-0.4,1-1,1h-6c-0.2,0-0.4-0.1-0.6-0.2L7.7,317H4v13h6c0.6,0,1,0.4,1,1S10.6,332,10,332z"/>
	</g>
	<g>
		<path class="st6" d="M6,319c-0.6,0-1-0.4-1-1v-2c0-0.6,0.4-1,1-1s1,0.4,1,1v2C7,318.6,6.6,319,6,319z"/>
	</g>
	<g>
		<path class="st6" d="M10,332c-0.2,0-0.3,0-0.5-0.1c-0.5-0.3-0.7-0.9-0.4-1.4l7-13c0-0.1,0.1-0.2,0.2-0.2l1.6-1.6l-0.6-1.7h-6.6
			l-0.8,2.3c-0.2,0.5-0.7,0.8-1.3,0.6c-0.5-0.2-0.8-0.7-0.6-1.3l1-3c0.1-0.4,0.5-0.7,0.9-0.7h8c0.4,0,0.8,0.3,0.9,0.7l1,3
			c0.1,0.4,0,0.8-0.2,1l-1.9,1.9l-6.9,12.9C10.7,331.8,10.4,332,10,332z"/>
	</g>
	<g>
		<path class="st6" d="M25,320c-0.6,0-1-0.4-1-1v-2h-2c-0.6,0-1-0.4-1-1s0.4-1,1-1h3c0.6,0,1,0.4,1,1v3C26,319.6,25.6,320,25,320z"
			/>
	</g>
	<g>
		<path class="st6" d="M25,326c-0.6,0-1-0.4-1-1v-3c0-0.6,0.4-1,1-1s1,0.4,1,1v3C26,325.6,25.6,326,25,326z"/>
	</g>
	<g>
		<path class="st6" d="M25,332h-3c-0.6,0-1-0.4-1-1s0.4-1,1-1h2v-2c0-0.6,0.4-1,1-1s1,0.4,1,1v3C26,331.6,25.6,332,25,332z"/>
	</g>
	<g>
		<path class="st6" d="M19,332h-3c-0.6,0-1-0.4-1-1s0.4-1,1-1h3c0.6,0,1,0.4,1,1S19.6,332,19,332z"/>
	</g>
	<g>
		<path class="st6" d="M13,332h-3c-0.6,0-1-0.4-1-1s0.4-1,1-1h3c0.6,0,1,0.4,1,1S13.6,332,13,332z"/>
	</g>
</g>
<g id="allgears">
	<g>
		<path class="st6" d="M25,304H3c-0.6,0-1-0.4-1-1v-14c0-0.6,0.4-1,1-1h5c0.2,0,0.4,0.1,0.6,0.2l2.7,1.8h5.4l2.7-1.8
			c0.2-0.1,0.4-0.2,0.6-0.2h5c0.6,0,1,0.4,1,1v14C26,303.6,25.6,304,25,304z M4,302h20v-12h-3.7l-2.7,1.8c-0.2,0.1-0.4,0.2-0.6,0.2
			h-6c-0.2,0-0.4-0.1-0.6-0.2L7.7,290H4V302z"/>
	</g>
	<g>
		<path class="st6" d="M20,290c-0.4,0-0.7-0.2-0.9-0.6l-1.7-3.4h-6.8l-1.7,3.4c-0.2,0.5-0.8,0.7-1.3,0.4c-0.5-0.2-0.7-0.8-0.4-1.3
			l2-4c0.2-0.3,0.5-0.6,0.9-0.6h8c0.4,0,0.7,0.2,0.9,0.6l2,4c0.2,0.5,0,1.1-0.4,1.3C20.3,290,20.2,290,20,290z"/>
	</g>
	<g>
		<path class="st6" d="M6,293c-0.6,0-1-0.4-1-1v-3c0-0.6,0.4-1,1-1s1,0.4,1,1v3C7,292.6,6.6,293,6,293z"/>
	</g>
	<g>
		<path class="st6" d="M22,293c-0.6,0-1-0.4-1-1v-3c0-0.6,0.4-1,1-1s1,0.4,1,1v3C23,292.6,22.6,293,22,293z"/>
	</g>
</g>
<g id="privateserver">
	<g>
		<path class="st6" d="M10,277H5c-0.6,0-1-0.4-1-1v-20c0-0.6,0.4-1,1-1h14c0.6,0,1,0.4,1,1v5c0,0.6-0.4,1-1,1s-1-0.4-1-1v-4H6v18h4
			c0.6,0,1,0.4,1,1S10.6,277,10,277z"/>
	</g>
	<g>
		<path class="st6" d="M8.5,258c-0.8,0-1.5,0.7-1.5,1.5s0.7,1.5,1.5,1.5s1.5-0.7,1.5-1.5S9.3,258,8.5,258L8.5,258z"/>
	</g>
	<g>
		<path class="st6" d="M23,278h-9.1c-0.6,0-1-0.4-1-1v-6c0-0.6,0.4-1,1-1H23c0.6,0,1,0.4,1,1v6C24,277.6,23.6,278,23,278z M14.9,276
			H22v-4h-7.1V276z"/>
	</g>
	<g>
		<path class="st6" d="M21,272c-0.6,0-1-0.4-1-1v-4c0-0.8-0.7-1.5-1.5-1.5S17,266.2,17,267v4c0,0.6-0.4,1-1,1s-1-0.4-1-1v-4
			c0-1.9,1.6-3.5,3.5-3.5s3.5,1.6,3.5,3.5v4C22,271.6,21.6,272,21,272z"/>
	</g>
	<g>
		<path class="st6" d="M12,269H5c-0.6,0-1-0.4-1-1s0.4-1,1-1h7c0.6,0,1,0.4,1,1S12.6,269,12,269z"/>
	</g>
	<g>
		<path class="st6" d="M10,273H5c-0.6,0-1-0.4-1-1s0.4-1,1-1h5c0.6,0,1,0.4,1,1S10.6,273,10,273z"/>
	</g>
</g>
<g id="publicserver">
	<g>
		<path class="st6" d="M25,250H3c-0.6,0-1-0.4-1-1v-3c0-2.8,2.2-5,5-5c0.6,0,1.2,0.1,1.8,0.3c1.1-2,3.3-3.3,5.7-3.3
			c3.1,0,5.8,2.2,6.4,5.2c0.4-0.1,0.7-0.2,1.1-0.2c2.3,0,3.9,1.6,4,3.9v0.1v2C26,249.6,25.6,250,25,250z M4,248h20v-0.9
			c0,0,0,0,0-0.1c0-1.7-1.3-2-2-2c-0.6,0-1.1,0.3-1.3,0.5c-0.3,0.3-0.7,0.3-1.1,0.2c-0.4-0.2-0.6-0.5-0.6-1v-0.1v-0.1
			c0-2.5-2-4.5-4.5-4.5c-1.9,0-3.6,1.2-4.3,3.1c-0.1,0.3-0.3,0.5-0.6,0.6s-0.6,0-0.9-0.1C8.2,243.2,7.6,243,7,243c-1.7,0-3,1.4-3,3
			V248z"/>
	</g>
	<g>
		<path class="st6" d="M21,240c-0.6,0-1-0.4-1-1v-10H8v10c0,0.6-0.4,1-1,1s-1-0.4-1-1v-11c0-0.6,0.4-1,1-1h14c0.6,0,1,0.4,1,1v11
			C22,239.6,21.6,240,21,240z"/>
	</g>
	<g>
		<path class="st6" d="M10.5,230c-0.8,0-1.5,0.7-1.5,1.5s0.7,1.5,1.5,1.5s1.5-0.7,1.5-1.5S11.3,230,10.5,230L10.5,230z"/>
	</g>
</g>
<g id="nocopylocked">
	<g>
		<path class="st6" d="M14,221c-6.1,0-11-4.9-11-11s4.9-11,11-11s11,4.9,11,11S20.1,221,14,221z M14,201c-5,0-9,4-9,9s4,9,9,9
			s9-4,9-9S19,201,14,201z"/>
	</g>
	<g>
		<path class="st6" d="M14,216c-1.6,0-3.1-0.6-4.2-1.8C8.6,213.1,8,211.6,8,210s0.6-3.1,1.8-4.2c1.1-1.1,2.6-1.8,4.2-1.8
			s3.1,0.6,4.2,1.8c0.4,0.4,0.4,1,0,1.4s-1,0.4-1.4,0c-1.5-1.5-4.1-1.5-5.7,0c-0.8,0.8-1.2,1.8-1.2,2.8s0.4,2.1,1.2,2.8
			c1.5,1.5,4.1,1.5,5.7,0c0.4-0.4,1-0.4,1.4,0s0.4,1,0,1.4C17.1,215.4,15.6,216,14,216z"/>
	</g>
	<g>
		<path class="st6" d="M20.5,218c-0.3,0-0.5-0.1-0.7-0.3L6.3,204.2c-0.4-0.4-0.4-1,0-1.4s1-0.4,1.4,0l13.5,13.5c0.4,0.4,0.4,1,0,1.4
			C21,217.9,20.8,218,20.5,218z"/>
	</g>
</g>
<g id="copylocked">
	<g>
		<path class="st6" d="M14,193c-6.1,0-11-4.9-11-11s4.9-11,11-11s11,4.9,11,11S20.1,193,14,193z M14,173c-5,0-9,4-9,9s4,9,9,9
			s9-4,9-9S19,173,14,173z"/>
	</g>
	<g>
		<path class="st6" d="M13.7,188c-1.6,0-3.1-0.6-4.2-1.8c-1.1-1.1-1.8-2.6-1.8-4.2s0.6-3.1,1.8-4.2c1.1-1.1,2.6-1.8,4.2-1.8
			s3.1,0.6,4.2,1.8c0.4,0.4,0.4,1,0,1.4s-1,0.4-1.4,0c-1.5-1.5-4.1-1.5-5.7,0C10,180,9.6,181,9.6,182s0.4,2.1,1.2,2.8
			c1.5,1.5,4.1,1.5,5.7,0c0.4-0.4,1-0.4,1.4,0s0.4,1,0,1.4C16.8,187.4,15.3,188,13.7,188z"/>
	</g>
</g>
<g id="playaudio-on">
	<path class="st6" d="M33,144c0-0.6,0.4-0.8,0.9-0.5l16.3,10c0.5,0.3,0.5,0.8,0,1l-16.3,10c-0.5,0.3-0.9,0.1-0.9-0.5V144z"/>
</g>
<g id="playaudio">
	<path class="st6" d="M6,165c-0.2,0-0.3,0-0.5-0.1C5.2,164.7,5,164.4,5,164v-20c0-0.4,0.2-0.7,0.5-0.9s0.7-0.2,1,0l16,10
		c0.3,0.2,0.5,0.5,0.5,0.8s-0.2,0.7-0.5,0.8l-16,10C6.4,164.9,6.2,165,6,165z M7,145.8v16.4l13.1-8.2L7,145.8z"/>
</g>
<polygon id="dislike-on" class="st10" points="41,137 39,134 39,131 40.4,128 33,128 31,124 35,115 46,115 53,118 53,128 48,128 
	44,133 43,137 "/>
<polygon id="dislike" class="st12" points="19,127 15,132 14,136 11,136 10,134 10,131 12,127 5,127 4,124 8,116 18,116 24,118 
	24,127 "/>
<polygon id="like-on" class="st6" points="42.9,87 45,90 45,93 43.5,96 50.9,96 53,100.1 48.5,109 37.8,109 31,106 31,96 35.9,96 
	39.9,91 40.9,87 "/>
<g id="like">
	<path class="st6" d="M20,109H10c-0.1,0-0.2,0-0.3-0.1l-6-2C3.3,106.8,3,106.4,3,106v-9c0-0.6,0.4-1,1-1h4.5l3.6-4.5l0.9-3.8
		c0.1-0.4,0.5-0.8,1-0.8h3c0.4,0,0.7,0.2,0.9,0.6l1,2C19,89.7,19,89.8,19,90v3c0,0.2,0,0.3-0.1,0.4L17.6,96H23
		c0.4,0,0.8,0.3,0.9,0.7l1,3c0.1,0.3,0.1,0.5-0.1,0.8l-4,8C20.7,108.8,20.4,109,20,109z M10.2,107h9.2l3.5-7.1L22.3,98H16
		c-0.3,0-0.7-0.2-0.9-0.5s-0.2-0.7,0-1l1.9-3.8v-2.5L16.4,89h-1.6L14,92.2c0,0.1-0.1,0.3-0.2,0.4l-4,5C9.6,97.9,9.3,98,9,98H5v7.3
		L10.2,107z"/>
</g>
<g id="catalog-on">
	<g>
		<path class="st6" d="M53.2,60c-0.5-0.1-1.1,0.3-1.2,0.8V61H36.2L36,59.8c-0.1-0.5-0.5-0.8-1-0.8h-4c-0.6,0-1,0.4-1,1s0.4,1,1,1
			h3.2L36,72.2c0.1,0.5,0.5,0.8,1,0.8h14c0.5,0,0.9-0.3,1-0.8l2-11C54.1,60.6,53.7,60.1,53.2,60z M48,70h-8c-0.6,0-1-0.4-1-1
			s0.4-1,1-1h8c0.6,0,1,0.4,1,1S48.6,70,48,70z M49,66H39c-0.6,0-1-0.4-1-1s0.4-1,1-1h10c0.6,0,1,0.4,1,1S49.6,66,49,66z"/>
	</g>
	<g>
		<circle class="st6" cx="39.5" cy="77.5" r="2.5"/>
	</g>
	<g>
		<circle class="st6" cx="48.5" cy="77.5" r="2.5"/>
	</g>
</g>
<g id="catalog">
	<g>
		<path class="st6" d="M23,73H9c-0.5,0-0.9-0.4-1-0.8L6.2,61H3c-0.6,0-1-0.4-1-1s0.4-1,1-1h4c0.5,0,0.9,0.4,1,0.8L9.8,71h12.3
			L24,60.8c0.1-0.5,0.6-0.9,1.2-0.8c0.5,0.1,0.9,0.6,0.8,1.2l-2,11C23.9,72.7,23.5,73,23,73z"/>
	</g>
	<g>
		<path class="st6" d="M21,65H11c-0.6,0-1-0.4-1-1s0.4-1,1-1h10c0.6,0,1,0.4,1,1S21.6,65,21,65z"/>
	</g>
	<g>
		<path class="st6" d="M20,69h-8c-0.6,0-1-0.4-1-1s0.4-1,1-1h8c0.6,0,1,0.4,1,1S20.6,69,20,69z"/>
	</g>
	<g>
		<path class="st6" d="M11,81c-1.9,0-3.5-1.6-3.5-3.5S9.1,74,11,74s3.5,1.6,3.5,3.5S12.9,81,11,81z M11,76c-0.8,0-1.5,0.7-1.5,1.5
			S10.2,79,11,79s1.5-0.7,1.5-1.5S11.8,76,11,76z"/>
	</g>
	<g>
		<path class="st6" d="M21,81c-1.9,0-3.5-1.6-3.5-3.5S19.1,74,21,74s3.5,1.6,3.5,3.5S22.9,81,21,81z M21,76c-0.8,0-1.5,0.7-1.5,1.5
			S20.2,79,21,79s1.5-0.7,1.5-1.5S21.8,76,21,76z"/>
	</g>
</g>
<g id="games-on">
	<path class="st6" d="M53.2,37.4l-4.3-2.9C48.4,34.2,47.5,34,47,34H37c-0.5,0-1.4,0.2-1.8,0.6l-4.3,2.9c-0.5,0.3-0.8,1-0.8,1.6v10
		c0,0.5,0.5,1,1,1h3c0.5,0,1.4-0.2,1.9-0.4l2.2-1.1c0.5-0.2,1.3-0.4,1.9-0.4h4c0.5,0,1.4,0.2,1.9,0.4l2.2,1.1
		c0.5,0.2,1.3,0.4,1.9,0.4h3c0.5,0,1-0.5,1-1V39C54,38.5,53.6,37.8,53.2,37.4z M39,43h-1v1c0,0.6-0.4,1-1,1s-1-0.4-1-1v-1h-1
		c-0.6,0-1-0.4-1-1s0.4-1,1-1h1v-1c0-0.6,0.4-1,1-1s1,0.4,1,1v1h1c0.6,0,1,0.4,1,1S39.6,43,39,43z M46,42c-0.8,0-1.5-0.7-1.5-1.5
		S45.2,39,46,39s1.5,0.7,1.5,1.5S46.8,42,46,42z M49,45c-0.8,0-1.5-0.7-1.5-1.5S48.2,42,49,42s1.5,0.7,1.5,1.5S49.8,45,49,45z"/>
</g>
<g id="games_1_">
	<g>
		<path class="st6" d="M25,50h-4c-0.1,0-0.3,0-0.4-0.1L15.8,48h-3.6l-4.8,1.9C7.3,50,7.1,50,7,50H3c-0.6,0-1-0.4-1-1V38
			c0-0.4,0.2-0.7,0.5-0.9l5-3C7.6,34,7.8,34,8,34h12.2c0.2,0,0.4,0.1,0.5,0.2l4.8,3c0.3,0.2,0.5,0.5,0.5,0.8v11
			C26,49.6,25.6,50,25,50z M21.2,48H24v-9.4L20,36H8.3L4,38.6V48h2.8l4.8-1.9c0.1,0,0.2-0.1,0.4-0.1h4c0.1,0,0.3,0,0.4,0.1L21.2,48z
			"/>
	</g>
	<g>
		<path class="st6" d="M11,43H7c-0.6,0-1-0.4-1-1s0.4-1,1-1h4c0.6,0,1,0.4,1,1S11.6,43,11,43z"/>
	</g>
	<g>
		<path class="st6" d="M9,45c-0.6,0-1-0.4-1-1v-4c0-0.6,0.4-1,1-1s1,0.4,1,1v4C10,44.6,9.6,45,9,45z"/>
	</g>
	<g>
		<path class="st6" d="M18,39c-0.8,0-1.5,0.7-1.5,1.5S17.2,42,18,42s1.5-0.7,1.5-1.5S18.8,39,18,39L18,39z"/>
	</g>
	<g>
		<path class="st6" d="M21,42c-0.8,0-1.5,0.7-1.5,1.5S20.2,45,21,45s1.5-0.7,1.5-1.5S21.8,42,21,42L21,42z"/>
	</g>
</g>
<g id="inventory-on">
	<path class="st6" d="M50.9,12.4l-0.7,1.3c-0.7,1.4-1.9,2.4-3.3,2.9V18c0,0.6-0.4,1-1,1s-1-0.4-1-1v-1h-0.1H39h-0.1v1
		c0,0.6-0.4,1-1,1s-1-0.4-1-1v-1.4c-1.4-0.5-2.6-1.5-3.3-2.9L33,12.2V25c0,0.6,0.4,1,1,1h16c0.6,0,1-0.4,1-1V12.2L50.9,12.4z"/>
	<path class="st6" d="M39.1,15h5.8c1.5,0,2.9-0.8,3.6-2.2l0.6-1.2l1.2-3c-0.7-1.3-2-2.3-3.9-2.5c-0.2-2.3-2.1-4-4.5-4
		c-2.3,0-4.2,1.8-4.5,4c-2,0.2-3.4,1.4-4,2.8l2,4C36.2,14.2,37.6,15,39.1,15z M42,4c1.2,0,2.2,0.9,2.4,2c-1.9,0-3.7,0-4.9,0
		C39.8,4.9,40.8,4,42,4z"/>
</g>
<g id="inventory">
	<g>
		<path class="st6" d="M22,26H6c-0.6,0-1-0.4-1-1V11c0-2.8,2.2-5,5-5h8c2.8,0,5,2.2,5,5v14C23,25.6,22.6,26,22,26z M7,24h14V11
			c0-1.7-1.3-3-3-3h-8c-1.7,0-3,1.3-3,3V24z"/>
	</g>
	<g>
		<path class="st6" d="M10,19c-0.6,0-1-0.4-1-1v-2c0-0.6,0.4-1,1-1s1,0.4,1,1v2C11,18.6,10.6,19,10,19z"/>
	</g>
	<g>
		<path class="st6" d="M18,19c-0.6,0-1-0.4-1-1v-2c0-0.6,0.4-1,1-1s1,0.4,1,1v2C19,18.6,18.6,19,18,19z"/>
	</g>
	<g>
		<path class="st6" d="M17.5,8c-0.6,0-1-0.4-1-1V6.5C16.5,5.1,15.4,4,14,4s-2.5,1.1-2.5,2.5V7c0,0.6-0.4,1-1,1s-1-0.4-1-1V6.5
			C9.5,4,11.5,2,14,2s4.5,2,4.5,4.5V7C18.5,7.6,18.1,8,17.5,8z"/>
	</g>
	<g>
		<path class="st6" d="M16.9,17h-5.8c-2.3,0-4.3-1.3-5.4-3.3l-0.6-1.2l1.8-0.9l0.6,1.2c0.7,1.4,2.1,2.2,3.6,2.2h5.8
			c1.5,0,2.9-0.8,3.6-2.2l0.6-1.2l1.8,0.9l-0.6,1.2C21.3,15.7,19.2,17,16.9,17z"/>
	</g>
</g>
<g id="profile_1_" transform="translate(4.000000, 925.000000)">
	<circle id="Oval_3_" class="st9" cx="10" cy="7" r="5"/>
	<path id="Path_87_" class="st9" d="M10,15c0,0,5,0,6,1s2,6,2,6s-3.1,2-8,2s-8-2-8-2s1-5,2-6S10,15,10,15z"/>
</g>
<polygon id="like_2_" class="st9" points="9,909 13,904 14,900 17,900 18,902 18,905 16,909 23,909 24,912 20,920 10,920 4,918 
	4,909 "/>
</svg>
