<svg version="1.1" id="Layer_1" xmlns="http://www.w3.org/2000/svg" x="0" y="0" width="90" height="90" xml:space="preserve"><style>.st2{fill:none;stroke:#000;stroke-width:2;stroke-linecap:round;stroke-linejoin:round;stroke-miterlimit:10}</style><g id="unapproved_1_"><path id="bg_2_" fill="#fff" d="M0 0h90v90H0z"/><g id="unapproved" opacity=".1"><circle class="st2" cx="45" cy="48.8" r="10"/><path class="st2" d="M38 41.7l14 14.1M32.5 23.5h-4v4M28.5 62.5v4h4M28.5 31.8v6M28.5 42v6M28.5 52.2v6M57.5 66.5h4v-4M61.5 58.2v-6M61.5 48v-6M61.5 37.8v-4M36.8 66.5h6M47.2 66.5h6M36.8 23.5h6M47.2 23.5h4M51.4 23.6l3.5 3.5M57.9 30.1l3.5 3.5M51.2 23.8v3M58.5 33.8h3M51.2 30.2v3.6h3.6"/></g></g></svg>