<?xml version="1.0" encoding="utf-8"?>
<!-- Generator: Adobe Illustrator 19.1.0, SVG Export Plug-In . SVG Version: 6.00 Build 0)  -->
<!DOCTYPE svg PUBLIC "-//W3C//DTD SVG 1.1//EN" "http://www.w3.org/Graphics/SVG/1.1/DTD/svg11.dtd">
<svg version="1.1" id="R" xmlns="http://www.w3.org/2000/svg" xmlns:xlink="http://www.w3.org/1999/xlink" x="0px" y="0px"
	 width="72px" height="72px" viewBox="0 0 72 72" style="enable-background:new 0 0 72 72;" xml:space="preserve">
<style type="text/css">
	.st0{fill:#E2231A;}
	.st1{fill:#FFFFFF;}
</style>
<g id="R_1_">
	<g>
		<path class="st0" d="M69.3,67.3C59,57.8,50.1,50.1,40.7,42.2c5.6-0.2,11.7-0.5,17.3-1c0.6-0.1,1.2-0.3,1.7-0.7
			c2.1-1.7,5.1-4.7,7-7.3c0.3-0.5,0.5-1,0.3-1.6c-2-9-5.4-19.8-10.3-29.4c-0.4-0.7-1.2-1.2-2-1.2C36.6,2.1,19.3,4.6,4,7.7
			C3,7.9,2.3,8.8,2.3,9.8C2.6,28.4,3.6,47.6,5,66.5c0.1,1,0.8,1.8,1.8,2c6.1,0.9,12.1,1.7,20.3,2.2c0.7,0,1.3-0.7,1-1.4
			c-2.8-7.9-7.2-23.6-7.9-26.4c0.7,0,1-0.1,1.6-0.1c3.7,7.5,9.3,17.9,13.3,26.5c0.5,1.1,1.6,1.8,2.8,1.8c9.5,0.2,19.9-0.2,30.8-1.8
			C69.6,69,70,67.9,69.3,67.3z M34.1,26.8c-3.6,0.4-9.1,0.8-12.6,1c-0.3-2.2-0.6-5.4-0.7-7.7c4.3,0.1,8.7,0.2,13.3,0.6
			C34.1,22.7,34.1,24.7,34.1,26.8z"/>
	</g>
	<g>
		<path class="st1" d="M57.6,37.5c1.8-1.6,3.9-3.6,5.3-5.9C61,23.2,58,14,53.9,5.4C38.2,6.5,21.2,8.7,6.4,11.5c0.6,19.8,1.5,36,3,53
			c4.7,0.7,7.9,1.1,13.2,1.5C20,56.8,18,49.3,16.1,40c2.5-0.1,5.1-0.2,7.7-0.3c6.2,10,9.8,17.2,15.8,27c7.4,0,14.2-0.2,21.1-0.8
			c-9.9-9.7-19.1-18.3-28.5-26.6C41.2,38.8,50.3,38.2,57.6,37.5z M17.9,31.6c-0.7-5-0.9-10-1.1-15c7,0,14.4,0.3,21.3,0.9
			c0.2,3.4,0.2,9,0,12.5C31.6,30.7,24.8,31.2,17.9,31.6z"/>
	</g>
</g>
</svg>
