<?xml version="1.0" encoding="UTF-8"?>
<!-- Generator: Adobe Illustrator 19.1.0, SVG Export Plug-In . SVG Version: 6.00 Build 0)  -->
<!DOCTYPE svg PUBLIC "-//W3C//DTD SVG 1.1//EN" "http://www.w3.org/Graphics/SVG/1.1/DTD/svg11.dtd">
<svg version="1.1" id="ROBLOX" xmlns="http://www.w3.org/2000/svg" xmlns:xlink="http://www.w3.org/1999/xlink" x="0px" y="0px" width="320px" height="78px" viewBox="0 0 320 78" style="enable-background:new 0 0 320 78;" xml:space="preserve">
<style type="text/css">
	.st0{fill:#E2231A;}
	.st1{fill:#FFFFFF;}
	.st2{fill-rule:evenodd;clip-rule:evenodd;fill:#E2231A;}
	.st3{fill-rule:evenodd;clip-rule:evenodd;fill:#FFFFFF;}
</style>
<g id="ROBLOX_1_">
	<g>
		<path class="st0" d="M236.3,12.1c-0.4-0.4-1-0.6-1.5-0.7C223,9.5,207.5,9.5,195,11.4c-0.9,0.1-1.7,0.6-2.1,1.4    c-2.6,4.1-4.3,8-5.7,12.9c-0.1,0.3-0.1,0.6-0.1,0.9c0,16.5,1,35.5,9,43.4c0.6,0.6,1.3,0.9,2.1,0.9c11.4,0.4,24.1,0.4,36.1,0    c1.1,0,2.2-0.7,2.7-1.7C244.1,54.4,248.5,23.1,236.3,12.1z M221.6,52.1c-4.2,0.2-9.4,0.1-13.1-0.1c-0.9-6.4-1.5-15.7-0.9-22.6    c3.9-0.3,11.7-0.3,14.6,0C222.9,35.1,222.8,46.2,221.6,52.1z"/>
		<g>
			<path class="st1" d="M232.8,15.8c-11.6-1.4-26.1-1.3-36.3,0c-2,3-3.9,7.1-5,11c0,12.9,0.4,34.3,7.8,39.6c9.8,0.5,23.1,0.4,33.9,0     C239.5,54.4,242.7,24.3,232.8,15.8z M225.2,55.8c-6,0.3-14.1,0.3-19.8,0c-1.3-6.7-2.6-22.5-1.1-30.2c5.7-0.4,15.6-0.5,21.1,0     C227.3,35,226.3,48.7,225.2,55.8z"/>
		</g>
	</g>
	<path class="st2" d="M162.1,1.1c7.7,0.2,15.6,1.1,23.3,2.4c1,0.2,1.7,0.9,1.6,2c-1.2,12.9-2.9,36.5-3.4,49.9h16.1   c1.2,0,2.1,1.2,2.1,2.4c-0.2,2.6-0.5,5.6-1.1,8.4c-0.2,0.8-0.8,1.5-1.6,1.7c-11.1,2.3-21,3.6-32.3,5.4c-1.2,0.2-2.2-0.6-2.4-1.8   c-3.2-26.4-4-46.8-4.3-68.3C160,2,161,1.1,162.1,1.1z"/>
	<path class="st3" d="M164.3,4.9c6.4,0.4,12.1,0.6,18.5,1.6c-1.4,16.4-2.2,35.5-2.8,51.9c6.7,0,12.8,0,18.1,0   c-0.1,2.1-0.4,3.8-0.7,5.8c-9.3,2-19.7,3-29.3,4.7C165.2,47.1,164.3,24.5,164.3,4.9z"/>
	<path class="st2" d="M233.8,59.2c12.3-16,31.8-36.7,48.8-49.7c0.7-0.5,1.5-0.7,2.3-0.6c8.6,1.5,17.1,4.1,25.3,8.4   c0.7,0.4,0.7,1.4,0.1,1.8c-20.9,11.9-41.5,33.5-51.7,53c-0.5,0.9-1.5,1.3-2.4,1c-8.7-2.7-15.5-6.6-22-11   C233.3,61.5,233.1,60.1,233.8,59.2z"/>
	<path class="st2" d="M232.6,26.7c6.4-3.4,14.9-7,21.7-8.5c0.7-0.2,1.5,0.1,2,0.7c12.7,15.1,30.4,25.8,62.1,36.6   c0.7,0.2,0.9,1.1,0.5,1.6c-6.3,7.1-15.7,15.1-23,19.3c-1,0.6-2.2,0.5-3.2-0.1c-20.1-12.5-45-31.2-60.5-46.4   C231.1,29,231.3,27.4,232.6,26.7z"/>
	<path class="st3" d="M284.9,13c-15.8,11.8-33.6,31.4-45.9,46.6c5.3,3.7,10.1,6.3,17.1,8.7c8.6-15.5,26.3-36.7,46.8-50   C296.7,15.8,290.1,14.2,284.9,13z"/>
	<g>
		<path class="st0" d="M167.8,46.1c-4-2.4-7.4-4.2-10.9-6c1.7-0.9,3.2-1.8,5-2.9c0.3-0.2,0.6-0.5,0.8-0.8c1.6-3.1,3.2-6.7,4.3-11    c0.3-1,0-2.2-0.7-2.9c-4.4-4.6-9.2-8.9-15.5-13c-0.5-0.3-1-0.5-1.6-0.5c-10.7-0.2-23,0.6-35.2,2.4c-0.9,0.1-1.6,0.9-1.7,1.8    c-1,11.5-1.9,35.9-1.7,55.7c0,1.1,0.9,2,2,2c15,0.6,29.2,0.6,45.7,0c1,0,2-0.6,2.6-1.5c3.4-5.8,6.5-13.1,8.4-19.8    C169.6,48.3,169,46.8,167.8,46.1z M142.6,30.9c-3.3,0.7-8.2,1.6-11.6,2c0.1-2.3,0.2-4.8,0.5-7.6c3.4,0.3,8.3,1.1,11.6,1.7    C142.9,28.5,142.8,29.9,142.6,30.9z M138.7,55.4c-2.5,0.3-5.8,0.4-7.7,0.3c-0.1-2.1-0.3-5-0.3-7.6c2.5-0.5,6.1-1.1,9.3-1.6    C139.6,49.7,139.1,52.5,138.7,55.4z"/>
		<g>
			<path class="st1" d="M149.6,40.1c3.9-1.8,6.8-3.3,9.9-5.6c1.4-2.7,2.9-6.4,3.8-9.7c-4.3-4.2-9.6-7.9-14.8-11.2     c-11.4-0.3-21.3,0.7-32.1,2.3c-1,18.5-1.6,33.6-1.6,50.6c14.3,0.6,27.3,0.5,42.3,0c3.3-5.1,6.3-12.2,8-17.5     C160.7,46.1,154.9,42.8,149.6,40.1z M141.7,58.7c-4.5,0.4-9.8,0.4-13.8,0.4c-0.3-4.9-0.4-8.7-0.4-13.6c4.8-1,11-2.3,16.8-3.6     C143.7,47.5,142.8,53.3,141.7,58.7z M145.5,33c-5.9,1.5-12.7,3-17.9,3.8c0.1-5.3,0.5-10.2,0.8-15.1c6.4,0.7,12.6,1.5,18.3,2.7     C146.3,27.7,145.9,30.4,145.5,33z"/>
		</g>
	</g>
	<path class="st3" d="M236.5,29.1c4.5-2.5,12.3-5.2,17.2-6.5c12.8,14.7,28.6,24.5,57.4,35.3c-4.9,4.8-11.4,10.2-16.8,13.9   C274.3,59.3,252.5,43.3,236.5,29.1z"/>
	<g>
		<path class="st0" d="M107.2,19.1c-0.5-1-1.4-1.6-2.5-1.7c-12.7-1.1-29.4,0.1-40.9,1.9c-1.1,0.2-2,0.9-2.4,1.9    c-3.9,10.3-6.6,21-8.9,32.3c-0.2,1,0.1,2,0.8,2.7c4.5,4.8,10.6,10.3,15.8,14c0.5,0.3,1,0.5,1.6,0.6c6.7,0.4,23.5,0.3,32.3,0    c0.5,0,1.1-0.2,1.5-0.5c4.8-3.2,9.4-8.8,12.1-14.4c0.2-0.5,0.3-1,0.3-1.5C116.4,43,112.1,29.1,107.2,19.1z M75.2,52.3    c0.4-4.6,1.3-12.2,2.4-16.6c3.9-0.3,9.4-0.5,13.2-0.4c0.9,4.8,1.5,12.2,1.3,16.8C87.1,52.4,79.8,52.6,75.2,52.3z"/>
		<path class="st0" d="M66.7,14.6c0.3,0.9,1.2,1.4,2.2,1.3c9.7-1.2,22.3-1.8,32.1-1.3c0.9,0.1,1.8-0.5,2.1-1.4    c0.7-2.7,1.3-5.8,1.6-8.8c0.1-1.1-0.7-2.2-1.8-2.2C90.6,1,76.6,1.9,65.9,3.9c-1.1,0.2-1.9,1.3-1.6,2.5    C64.8,9.1,65.7,12.2,66.7,14.6z"/>
		<path class="st1" d="M100.1,5.4c-0.1,1.8-0.4,3.8-0.8,5.4c-10.8-0.2-19.9,0.3-29.4,1.5c-0.7-1.7-1.3-3.7-1.7-5.5    C78.1,5.4,89.2,4.8,100.1,5.4z"/>
		<g>
			<path class="st1" d="M103.5,21.5c-12.9-0.9-27.8,0.2-37.8,1.4c-3,7.7-7.3,22.6-8.6,31c3.8,4,9.2,8.7,14,12     c10.1,0.6,19.6,0.8,31.1,0c4.1-3,8.1-7.4,10.4-12C111.7,43,108.5,31,103.5,21.5z M96,55.8c-8.2,0.3-18.1,0.4-24.9,0     c0.4-7.2,1.9-17.3,3.5-23.7c5.2-0.6,13.1-0.9,19-0.8C95.9,38.8,96.3,49.4,96,55.8z"/>
		</g>
	</g>
	<g>
		<g>
			<path class="st0" d="M66.2,72.3c-10-9.2-18.7-16.8-27.9-24.5c5.5-0.2,11.4-0.5,16.9-0.9c0.6,0,1.2-0.3,1.7-0.7     c2.1-1.7,5-4.6,6.8-7.1c0.3-0.5,0.5-1,0.3-1.6c-2-8.8-5.3-19.3-10.1-28.7c-0.4-0.7-1.1-1.2-1.9-1.1c-17.8,1.1-34.6,3.5-49.5,6.5     c-0.9,0.2-1.6,1.1-1.6,2c0.3,18.2,1.3,36.9,2.5,55.2c0.1,1,0.8,1.8,1.8,1.9c6,0.9,11.8,1.7,19.8,2.1c0.7,0,1.3-0.7,1-1.3     c-2.7-7.7-7-23-7.7-25.7c0.7,0,1-0.1,1.5-0.1c3.6,7.3,9.1,17.4,13,25.8c0.5,1.1,1.5,1.7,2.7,1.8c9.3,0.2,19.4-0.2,30.1-1.7     C66.5,74,66.9,72.9,66.2,72.3z M31.9,32.8c-3.5,0.4-8.8,0.8-12.2,1c-0.3-2.2-0.6-5.3-0.7-7.5c4.2,0.1,8.5,0.2,13,0.6     C31.9,28.8,31.9,30.8,31.9,32.8z"/>
		</g>
		<g>
			<path class="st1" d="M54.8,43.3c1.8-1.6,3.8-3.5,5.2-5.7c-1.8-8.3-4.8-17.2-8.7-25.6C35.9,13,19.3,15.3,5,17.9     c0.6,19.3,1.5,35,3,51.6c4.5,0.6,7.7,1.1,12.9,1.5c-2.5-8.9-4.5-16.2-6.3-25.3c2.4-0.1,4.9-0.2,7.5-0.3c6,9.7,9.5,16.8,15.4,26.3     c7.2,0,13.8-0.2,20.6-0.8C48.3,61.4,39.4,53.1,30.2,45C38.8,44.5,47.7,43.9,54.8,43.3z M16.2,37.6c-0.7-4.9-0.9-9.7-1.1-14.6     c6.8,0,14.1,0.3,20.7,0.9c0.2,3.3,0.2,8.8,0,12.2C29.5,36.6,22.9,37.1,16.2,37.6z"/>
		</g>
	</g>
</g>
</svg>