<?xml version="1.0" encoding="UTF-8" standalone="no"?>
<!-- Generator: Adobe Illustrator 19.2.1, SVG Export Plug-In . SVG Version: 6.00 Build 0)  -->

<svg
   xmlns:dc="http://purl.org/dc/elements/1.1/"
   xmlns:cc="http://creativecommons.org/ns#"
   xmlns:rdf="http://www.w3.org/1999/02/22-rdf-syntax-ns#"
   xmlns:svg="http://www.w3.org/2000/svg"
   xmlns="http://www.w3.org/2000/svg"
   xmlns:sodipodi="http://sodipodi.sourceforge.net/DTD/sodipodi-0.dtd"
   xmlns:inkscape="http://www.inkscape.org/namespaces/inkscape"
   version="1.1"
   id="branded"
   x="0px"
   y="0px"
   width="24"
   height="24"
   viewBox="0 0 24 24"
   xml:space="preserve"
   sodipodi:docname="ROBUX.svg"
   inkscape:version="0.92.1 r"><metadata
     id="metadata157"><rdf:RDF><cc:Work
         rdf:about=""><dc:format>image/svg+xml</dc:format><dc:type
           rdf:resource="http://purl.org/dc/dcmitype/StillImage" /><dc:title></dc:title></cc:Work></rdf:RDF></metadata><defs
     id="defs155" /><sodipodi:namedview
     pagecolor="#ffffff"
     bordercolor="#666666"
     borderopacity="1"
     objecttolerance="10"
     gridtolerance="10"
     guidetolerance="10"
     inkscape:pageopacity="0"
     inkscape:pageshadow="2"
     inkscape:window-width="1920"
     inkscape:window-height="1016"
     id="namedview153"
     showgrid="false"
     inkscape:zoom="4.2142857"
     inkscape:cx="27.898305"
     inkscape:cy="35.491525"
     inkscape:window-x="0"
     inkscape:window-y="27"
     inkscape:window-maximized="1"
     inkscape:current-layer="branded" /><style
     type="text/css"
     id="style2">
	.st0{fill:#FFFFFF;}
	.st1{fill:#B8B8B8;}
	.st2{fill:#CC9E71;}
	.st3{fill:#02B757;}
	.st4{fill:#F6B702;}
	.st5{fill:#F68802;}
	.st6{fill:#E2231A;}
</style><g
     id="robux-white-on"
     transform="translate(-2,-114)"><path
       class="st0"
       d="m 37,207 v 2 h 2.6 c 0.1,-0.5 0.1,-1.5 0,-2 z"
       id="path4"
       inkscape:connector-curvature="0"
       style="fill:#ffffff" /><path
       class="st0"
       d="m 42,198 c -6.6,0 -12,5.4 -12,12 0,6.6 5.4,12 12,12 6.6,0 12,-5.4 12,-12 0,-6.6 -5.4,-12 -12,-12 z m 5,17 v 1 c 0,0.6 -0.4,1 -1,1 -0.6,0 -1,-0.4 -1,-1 v -1 h -3 c -0.2,0 -0.4,-0.1 -0.6,-0.2 L 37,211.3 v 2.7 c 0,0.6 -0.4,1 -1,1 -0.6,0 -1,-0.4 -1,-1 v -8 c 0,-0.6 0.4,-1 1,-1 h 4 c 1.1,0 1.7,1.1 1.7,3 0,0.6 -0.1,1.2 -0.2,1.7 -0.4,1.2 -1.2,1.3 -1.5,1.3 h -0.1 l 2.5,2 H 47 c 0.3,0 0.5,-0.5 0.5,-1 0,-0.4 -0.1,-1 -0.5,-1 h -2 c -1.4,0 -2.5,-1.3 -2.5,-3 0,-0.7 0.2,-1.4 0.5,-1.9 0.5,-0.7 1.2,-1.1 2,-1.1 v -1 c 0,-0.6 0.4,-1 1,-1 0.6,0 1,0.4 1,1 v 1 h 1 c 0.6,0 1,0.4 1,1 0,0.6 -0.4,1 -1,1 h -3 c -0.1,0 -0.2,0 -0.3,0.2 -0.1,0.2 -0.2,0.5 -0.2,0.8 0,0.4 0.2,1 0.5,1 h 2 c 1.4,0 2.5,1.3 2.5,3 0,1.7 -1.1,3 -2.5,3 z"
       id="path6"
       inkscape:connector-curvature="0"
       style="fill:#ffffff" /></g><g
     id="robux-white"
     transform="translate(-2,-114)"><g
       id="g11"><path
         class="st0"
         d="m 14,222 c -6.6,0 -12,-5.4 -12,-12 0,-6.6 5.4,-12 12,-12 6.6,0 12,5.4 12,12 0,6.6 -5.4,12 -12,12 z m 0,-22 c -5.5,0 -10,4.5 -10,10 0,5.5 4.5,10 10,10 5.5,0 10,-4.5 10,-10 0,-5.5 -4.5,-10 -10,-10 z"
         id="path9"
         inkscape:connector-curvature="0"
         style="fill:#ffffff" /></g><g
       id="g25"><g
         id="g15"><path
           class="st0"
           d="m 19,215 h -5 c -0.2,0 -0.4,-0.1 -0.6,-0.2 L 9,211.3 v 2.7 c 0,0.6 -0.4,1 -1,1 -0.6,0 -1,-0.4 -1,-1 v -8 c 0,-0.6 0.4,-1 1,-1 h 4 c 1.1,0 1.7,1.1 1.7,3 0,0.6 -0.1,1.2 -0.2,1.7 -0.4,1.2 -1.2,1.3 -1.5,1.3 h -0.1 l 2.5,2 H 19 c 0.3,0 0.5,-0.5 0.5,-1 0,-0.4 -0.1,-1 -0.5,-1 h -2 c -1.4,0 -2.5,-1.3 -2.5,-3 0,-0.7 0.2,-1.4 0.5,-1.9 0.5,-0.7 1.2,-1.1 2,-1.1 h 3 c 0.6,0 1,0.4 1,1 0,0.6 -0.4,1 -1,1 h -3 c -0.1,0 -0.2,0 -0.3,0.2 -0.1,0.2 -0.2,0.5 -0.2,0.8 0,0.4 0.2,1 0.5,1 h 2 c 1.4,0 2.5,1.3 2.5,3 0,1.7 -1.1,3 -2.5,3 z M 9,209 h 2.6 c 0.1,-0.5 0.1,-1.5 0,-2 H 9 Z"
           id="path13"
           inkscape:connector-curvature="0"
           style="fill:#ffffff" /></g><g
         id="g19"><path
           class="st0"
           d="m 18,206 c -0.6,0 -1,-0.4 -1,-1 v -1 c 0,-0.6 0.4,-1 1,-1 0.6,0 1,0.4 1,1 v 1 c 0,0.6 -0.4,1 -1,1 z"
           id="path17"
           inkscape:connector-curvature="0"
           style="fill:#ffffff" /></g><g
         id="g23"><path
           class="st0"
           d="m 18,217 c -0.6,0 -1,-0.4 -1,-1 v -1 c 0,-0.6 0.4,-1 1,-1 0.6,0 1,0.4 1,1 v 1 c 0,0.6 -0.4,1 -1,1 z"
           id="path21"
           inkscape:connector-curvature="0"
           style="fill:#ffffff" /></g></g></g><g
     id="robux"
     transform="translate(-2,-114)"><g
       id="g75"><path
         class="st3"
         d="m 14,138 c -6.6,0 -12,-5.4 -12,-12 0,-6.6 5.4,-12 12,-12 6.6,0 12,5.4 12,12 0,6.6 -5.4,12 -12,12 z m 0,-22 c -5.5,0 -10,4.5 -10,10 0,5.5 4.5,10 10,10 5.5,0 10,-4.5 10,-10 0,-5.5 -4.5,-10 -10,-10 z"
         id="path73"
         inkscape:connector-curvature="0"
         style="fill:#02b757" /></g><g
       id="g89"><g
         id="g79"><path
           class="st3"
           d="m 19,131 h -5 c -0.2,0 -0.4,-0.1 -0.6,-0.2 L 9,127.3 v 2.7 c 0,0.6 -0.4,1 -1,1 -0.6,0 -1,-0.4 -1,-1 v -8 c 0,-0.6 0.4,-1 1,-1 h 4 c 1.1,0 1.7,1.1 1.7,3 0,0.6 -0.1,1.2 -0.2,1.7 -0.4,1.2 -1.2,1.3 -1.5,1.3 h -0.1 l 2.5,2 H 19 c 0.3,0 0.5,-0.5 0.5,-1 0,-0.4 -0.1,-1 -0.5,-1 h -2 c -1.4,0 -2.5,-1.3 -2.5,-3 0,-0.7 0.2,-1.4 0.5,-1.9 0.5,-0.7 1.2,-1.1 2,-1.1 h 3 c 0.6,0 1,0.4 1,1 0,0.6 -0.4,1 -1,1 h -3 c -0.1,0 -0.2,0 -0.3,0.2 -0.1,0.2 -0.2,0.5 -0.2,0.8 0,0.4 0.2,1 0.5,1 h 2 c 1.4,0 2.5,1.3 2.5,3 0,1.7 -1.1,3 -2.5,3 z M 9,125 h 2.6 c 0.1,-0.5 0.1,-1.5 0,-2 H 9 Z"
           id="path77"
           inkscape:connector-curvature="0"
           style="fill:#02b757" /></g><g
         id="g83"><path
           class="st3"
           d="m 18,122 c -0.6,0 -1,-0.4 -1,-1 v -1 c 0,-0.6 0.4,-1 1,-1 0.6,0 1,0.4 1,1 v 1 c 0,0.6 -0.4,1 -1,1 z"
           id="path81"
           inkscape:connector-curvature="0"
           style="fill:#02b757" /></g><g
         id="g87"><path
           class="st3"
           d="m 18,133 c -0.6,0 -1,-0.4 -1,-1 v -1 c 0,-0.6 0.4,-1 1,-1 0.6,0 1,0.4 1,1 v 1 c 0,0.6 -0.4,1 -1,1 z"
           id="path85"
           inkscape:connector-curvature="0"
           style="fill:#02b757" /></g></g></g></svg>