<?xml version="1.0" encoding="utf-8"?>
<!-- Generator: Adobe Illustrator 19.2.1, SVG Export Plug-In . SVG Version: 6.00 Build 0)  -->
<svg version="1.1" id="ROBLOX" xmlns="http://www.w3.org/2000/svg" xmlns:xlink="http://www.w3.org/1999/xlink" x="0px" y="0px"
	 width="320px" height="78px" viewBox="0 0 320 78" style="enable-background:new 0 0 320 78;" xml:space="preserve">
<style type="text/css">
	.st0{fill:#E2231A;}
	.st1{fill:#FFFFFF;}
	.st2{fill:#E5E5E4;}
	.st3{fill:#353535;}
	.st4{fill:#515151;}
	.st5{fill:none;stroke:#515151;stroke-width:2;stroke-miterlimit:10;}
	.st6{fill:#9B9B9B;}
	.st7{fill:#CCCCCC;}
	.st8{fill:#727272;}
	.st9{fill:#333333;}
	.st10{fill:#FF9624;}
	.st11{fill:#FFC571;}
	.st12{fill:#493831;}
	.st13{fill:#FDEDCF;}
	.st14{fill:#E9AF65;}
	.st15{fill:none;stroke:#000000;stroke-width:0.75;stroke-miterlimit:10;}
	.st16{fill:none;stroke:#E2231A;stroke-miterlimit:10;}
	.st17{fill:#686868;}
	.st18{fill:#8D8D8D;}
	.st19{fill:#434343;}
	.st20{fill:none;stroke:#90908F;stroke-width:2;stroke-miterlimit:10;}
	.st21{fill:none;stroke:#6C6C6C;stroke-width:2;stroke-miterlimit:10;}
	.st22{fill-rule:evenodd;clip-rule:evenodd;fill:#DD4933;stroke:#C0272D;stroke-width:4;stroke-miterlimit:10;}
	.st23{fill-rule:evenodd;clip-rule:evenodd;fill:#FFFFFF;}
	.st24{fill-rule:evenodd;clip-rule:evenodd;fill:#DD4933;}
	.st25{fill:#C0272D;}
</style>
<g>
	<path class="st1" d="M64.1,11.4L52.8,55.3l43.9,11.3L108,22.7L64.1,11.4z M83.6,44.4L75,42.2l2.2-8.6l8.6,2.2L83.6,44.4z"/>
	<path class="st1" d="M31.2,16.3c11.4,0,16.5,6.8,16.5,13.6c0,4.2-1.8,7.7-5.2,10c4.9,5.5,7.8,13,8.8,21.7H30.5
		c-0.9-12-3.4-16.8-8.8-16.8v16.8H1.6V16.3H31.2z M21.7,34.4h0.5c3.7,0,5.4-1.3,5.4-4.3c0-1.9-1-4.5-4.7-4.5h-1.2V34.4z"/>
	<path class="st1" d="M141.1,16.3c14.7,0,17.6,7.4,17.6,12.7c0,3.7-1.3,7.1-5.9,9.7c5.7,3,7.1,6.5,7.1,10.4c0,7-4.9,12.5-15.5,12.5
		h-31.6V16.3H141.1z M132.8,34.3h0.5c4.4,0,6-1.2,6-4.4c0-2.5-1.2-4.4-5.3-4.4h-1.2V34.3z M132.8,51.7h0.6c4.6,0,6.4-1.3,6.4-4.7
		c0-3-1.4-5.1-5.6-5.1h-1.4V51.7z"/>
	<path class="st1" d="M166,16.3h20.1v33.9h17.6v11.4H166V16.3z"/>
	<path class="st1" d="M209.8,16.3v45.3h45.3V16.3H209.8z M236.9,43.4H228v-8.8h8.8V43.4z"/>
	<path class="st1" d="M260.5,16.3h21.9l6.7,8.3l6.4-8.3h21.8l-17.2,22.3l18.3,23.1h-22l-7.2-9l-6.9,9h-21.8l17.7-22.9L260.5,16.3z"
		/>
</g>
</svg>
