<?xml version="1.0" encoding="utf-8"?>
<!-- Generator: Adobe Illustrator 21.1.0, SVG Export Plug-In . SVG Version: 6.00 Build 0)  -->
<svg version="1.1" id="branded" xmlns="http://www.w3.org/2000/svg" xmlns:xlink="http://www.w3.org/1999/xlink" x="0px" y="0px"
	 width="56px" height="336px" viewBox="0 0 56 336" style="enable-background:new 0 0 56 336;" xml:space="preserve" preserveAspectRatio="none">
<style type="text/css">
	.st0{clip-path:url(#SVGID_2_);fill:none;stroke:#757575;stroke-width:4;stroke-miterlimit:10;}
	.st1{fill:none;stroke:#757575;stroke-width:2;stroke-miterlimit:10;}
	.st2{clip-path:url(#SVGID_4_);fill:none;stroke:#B8B8B8;stroke-width:4;stroke-miterlimit:10;}
	.st3{fill:none;stroke:#B8B8B8;stroke-width:2;stroke-miterlimit:10;}
	.st4{clip-path:url(#SVGID_6_);fill:#F6B702;}
	.st5{clip-path:url(#SVGID_8_);fill:#F6B702;}
	.st6{clip-path:url(#SVGID_10_);fill:#F6B702;}
	.st7{clip-path:url(#SVGID_12_);fill:none;stroke:#F6B702;stroke-width:4;stroke-miterlimit:10;}
	.st8{fill:none;stroke:#F6B702;stroke-width:2;stroke-miterlimit:10;}
	.st9{fill:#FFFFFF;}
	.st10{fill:#B8B8B8;}
	.st11{fill:#CC9E71;}
	.st12{fill:#02B757;}
	.st13{fill:#F6B702;}
	.st14{fill:#F68802;}
	.st15{fill:#E2231A;}
	.st16{fill:#ED1C24;}
</style>
<g id="follow-gray">
	<g>
		<g>
			<g>
				<defs>
					<path id="SVGID_1_" d="M13,332c0-5.5-4.5-10-10-10c0,3.3,0,6.6,0,10H13z"/>
				</defs>
				<clipPath id="SVGID_2_">
					<use xlink:href="#SVGID_1_"  style="overflow:visible;"/>
				</clipPath>
				<path class="st0" d="M13,332c0-5.5-4.5-10-10-10c0,3.3,0,6.6,0,10H13z"/>
			</g>
		</g>
	</g>
	<path class="st1" d="M24,332c0-11.6-9.4-21-21-21"/>
	<path class="st1" d="M18,332c0-8.3-6.7-15-15-15"/>
</g>
<g id="follow-disabled">
	<g>
		<g>
			<g>
				<defs>
					<path id="SVGID_3_" d="M13,304c0-5.5-4.5-10-10-10c0,3.3,0,6.6,0,10H13z"/>
				</defs>
				<clipPath id="SVGID_4_">
					<use xlink:href="#SVGID_3_"  style="overflow:visible;"/>
				</clipPath>
				<path class="st2" d="M13,304c0-5.5-4.5-10-10-10c0,3.3,0,6.6,0,10H13z"/>
			</g>
		</g>
	</g>
	<path class="st3" d="M24,304c0-11.6-9.4-21-21-21"/>
	<path class="st3" d="M18,304c0-8.3-6.7-15-15-15"/>
</g>
<g id="follow-on">
	<g>
		<g>
			<g>
				<defs>
					<path id="SVGID_5_" d="M38,277c0-3.9-3.1-7-7-7c0,2.3,0,4.6,0,7H38z"/>
				</defs>
				<clipPath id="SVGID_6_">
					<use xlink:href="#SVGID_5_"  style="overflow:visible;"/>
				</clipPath>
				<rect x="26" y="265" class="st4" width="17" height="17"/>
			</g>
		</g>
	</g>
	<g>
		<g>
			<g>
				<defs>
					<path id="SVGID_7_" d="M40,277c0-5-4-9-9-9c0-1.8,0-3.7,0-5.5c8,0,14.5,6.5,14.5,14.5H40z"/>
				</defs>
				<clipPath id="SVGID_8_">
					<use xlink:href="#SVGID_7_"  style="overflow:visible;"/>
				</clipPath>
				<rect x="26" y="257.5" class="st5" width="24.5" height="24.5"/>
			</g>
		</g>
	</g>
	<g>
		<g>
			<g>
				<defs>
					<path id="SVGID_9_" d="M47.5,277c0-9.1-7.4-16.5-16.5-16.5c0-1.8,0-3.7,0-5.5c12.2,0,22,9.8,22,22H47.5z"/>
				</defs>
				<clipPath id="SVGID_10_">
					<use xlink:href="#SVGID_9_"  style="overflow:visible;"/>
				</clipPath>
				<rect x="26" y="250" class="st6" width="32" height="32"/>
			</g>
		</g>
	</g>
</g>
<g id="follow">
	<g>
		<g>
			<g>
				<defs>
					<path id="SVGID_11_" d="M13,276c0-5.5-4.5-10-10-10c0,3.3,0,6.6,0,10H13z"/>
				</defs>
				<clipPath id="SVGID_12_">
					<use xlink:href="#SVGID_11_"  style="overflow:visible;"/>
				</clipPath>
				<path class="st7" d="M13,276c0-5.5-4.5-10-10-10c0,3.3,0,6.6,0,10H13z"/>
			</g>
		</g>
	</g>
	<path class="st8" d="M24,276c0-11.6-9.4-21-21-21"/>
	<path class="st8" d="M18,276c0-8.3-6.7-15-15-15"/>
</g>
<g id="robux-white-on">
	<path class="st9" d="M37,207v2h2.6c0.1-0.5,0.1-1.5,0-2H37z"/>
	<path class="st9" d="M42,198c-6.6,0-12,5.4-12,12s5.4,12,12,12s12-5.4,12-12S48.6,198,42,198z M47,215v1c0,0.6-0.4,1-1,1
		s-1-0.4-1-1v-1h-3c-0.2,0-0.4-0.1-0.6-0.2l-4.4-3.5v2.7c0,0.6-0.4,1-1,1s-1-0.4-1-1v-8c0-0.6,0.4-1,1-1h4c1.1,0,1.7,1.1,1.7,3
		c0,0.6-0.1,1.2-0.2,1.7c-0.4,1.2-1.2,1.3-1.5,1.3h-0.1l2.5,2H47c0.3,0,0.5-0.5,0.5-1c0-0.4-0.1-1-0.5-1h-2c-1.4,0-2.5-1.3-2.5-3
		c0-0.7,0.2-1.4,0.5-1.9c0.5-0.7,1.2-1.1,2-1.1v-1c0-0.6,0.4-1,1-1s1,0.4,1,1v1h1c0.6,0,1,0.4,1,1s-0.4,1-1,1h-3
		c-0.1,0-0.2,0-0.3,0.2s-0.2,0.5-0.2,0.8c0,0.4,0.2,1,0.5,1h2c1.4,0,2.5,1.3,2.5,3S48.4,215,47,215z"/>
</g>
<g id="robux-white">
	<g>
		<path class="st9" d="M14,222c-6.6,0-12-5.4-12-12s5.4-12,12-12s12,5.4,12,12S20.6,222,14,222z M14,200c-5.5,0-10,4.5-10,10
			s4.5,10,10,10s10-4.5,10-10S19.5,200,14,200z"/>
	</g>
	<g>
		<g>
			<path class="st9" d="M19,215h-5c-0.2,0-0.4-0.1-0.6-0.2L9,211.3v2.7c0,0.6-0.4,1-1,1s-1-0.4-1-1v-8c0-0.6,0.4-1,1-1h4
				c1.1,0,1.7,1.1,1.7,3c0,0.6-0.1,1.2-0.2,1.7c-0.4,1.2-1.2,1.3-1.5,1.3h-0.1l2.5,2H19c0.3,0,0.5-0.5,0.5-1c0-0.4-0.1-1-0.5-1h-2
				c-1.4,0-2.5-1.3-2.5-3c0-0.7,0.2-1.4,0.5-1.9c0.5-0.7,1.2-1.1,2-1.1h3c0.6,0,1,0.4,1,1s-0.4,1-1,1h-3c-0.1,0-0.2,0-0.3,0.2
				s-0.2,0.5-0.2,0.8c0,0.4,0.2,1,0.5,1h2c1.4,0,2.5,1.3,2.5,3S20.4,215,19,215z M9,209h2.6c0.1-0.5,0.1-1.5,0-2H9V209z"/>
		</g>
		<g>
			<path class="st9" d="M18,206c-0.6,0-1-0.4-1-1v-1c0-0.6,0.4-1,1-1s1,0.4,1,1v1C19,205.6,18.6,206,18,206z"/>
		</g>
		<g>
			<path class="st9" d="M18,217c-0.6,0-1-0.4-1-1v-1c0-0.6,0.4-1,1-1s1,0.4,1,1v1C19,216.6,18.6,217,18,217z"/>
		</g>
	</g>
</g>
<g id="robux-gray-on">
	<path class="st10" d="M37,179v2h2.6c0.1-0.5,0.1-1.5,0-2H37z"/>
	<path class="st10" d="M42,170c-6.6,0-12,5.4-12,12s5.4,12,12,12s12-5.4,12-12S48.6,170,42,170z M47,187v1c0,0.6-0.4,1-1,1
		s-1-0.4-1-1v-1h-3c-0.2,0-0.4-0.1-0.6-0.2l-4.4-3.5v2.7c0,0.6-0.4,1-1,1s-1-0.4-1-1v-8c0-0.6,0.4-1,1-1h4c1.1,0,1.7,1.1,1.7,3
		c0,0.6-0.1,1.2-0.2,1.7c-0.4,1.2-1.2,1.3-1.5,1.3h-0.1l2.5,2H47c0.3,0,0.5-0.5,0.5-1c0-0.4-0.1-1-0.5-1h-2c-1.4,0-2.5-1.3-2.5-3
		c0-0.7,0.2-1.4,0.5-1.9c0.5-0.7,1.2-1.1,2-1.1v-1c0-0.6,0.4-1,1-1s1,0.4,1,1v1h1c0.6,0,1,0.4,1,1s-0.4,1-1,1h-3
		c-0.1,0-0.2,0-0.3,0.2s-0.2,0.5-0.2,0.8c0,0.4,0.2,1,0.5,1h2c1.4,0,2.5,1.3,2.5,3S48.4,187,47,187z"/>
</g>
<g id="robux-gray">
	<g>
		<path class="st10" d="M14,194c-6.6,0-12-5.4-12-12s5.4-12,12-12s12,5.4,12,12S20.6,194,14,194z M14,172c-5.5,0-10,4.5-10,10
			s4.5,10,10,10s10-4.5,10-10S19.5,172,14,172z"/>
	</g>
	<g>
		<g>
			<path class="st10" d="M19,187h-5c-0.2,0-0.4-0.1-0.6-0.2L9,183.3v2.7c0,0.6-0.4,1-1,1s-1-0.4-1-1v-8c0-0.6,0.4-1,1-1h4
				c1.1,0,1.7,1.1,1.7,3c0,0.6-0.1,1.2-0.2,1.7c-0.4,1.2-1.2,1.3-1.5,1.3h-0.1l2.5,2H19c0.3,0,0.5-0.5,0.5-1c0-0.4-0.1-1-0.5-1h-2
				c-1.4,0-2.5-1.3-2.5-3c0-0.7,0.2-1.4,0.5-1.9c0.5-0.7,1.2-1.1,2-1.1h3c0.6,0,1,0.4,1,1s-0.4,1-1,1h-3c-0.1,0-0.2,0-0.3,0.2
				s-0.2,0.5-0.2,0.8c0,0.4,0.2,1,0.5,1h2c1.4,0,2.5,1.3,2.5,3S20.4,187,19,187z M9,181h2.6c0.1-0.5,0.1-1.5,0-2H9V181z"/>
		</g>
		<g>
			<path class="st10" d="M18,178c-0.6,0-1-0.4-1-1v-1c0-0.6,0.4-1,1-1s1,0.4,1,1v1C19,177.6,18.6,178,18,178z"/>
		</g>
		<g>
			<path class="st10" d="M18,189c-0.6,0-1-0.4-1-1v-1c0-0.6,0.4-1,1-1s1,0.4,1,1v1C19,188.6,18.6,189,18,189z"/>
		</g>
	</g>
</g>
<g id="tix-on">
	<path class="st11" d="M51,149h-2l-2-2v-2l-3-3l-14,14l3,3h2l2,2v2l3,3l14-14L51,149z M44.7,156.7c-0.2,0.2-0.5,0.3-0.7,0.3
		s-0.5-0.1-0.7-0.3l-3.3-3.3l-1.3,1.3c-0.2,0.2-0.5,0.3-0.7,0.3s-0.5-0.1-0.7-0.3c-0.4-0.4-0.4-1,0-1.4l4-4c0.4-0.4,1-0.4,1.4,0
		s0.4,1,0,1.4l-1.3,1.3l3.3,3.3C45.1,155.7,45.1,156.3,44.7,156.7z"/>
</g>
<g id="tix">
	<g>
		<path class="st11" d="M12,166c-0.3,0-0.5-0.1-0.7-0.3l-3-3C8.1,162.5,8,162.3,8,162v-1.6L7.6,160H6c-0.3,0-0.5-0.1-0.7-0.3l-3-3
			c-0.4-0.4-0.4-1,0-1.4l13-13c0.4-0.4,1-0.4,1.4,0l3,3c0.2,0.2,0.3,0.4,0.3,0.7v1.6l0.4,0.4H22c0.3,0,0.5,0.1,0.7,0.3l3,3
			c0.4,0.4,0.4,1,0,1.4l-13,13C12.5,165.9,12.3,166,12,166z M10,161.6l2,2L23.6,152l-2-2H20c-0.3,0-0.5-0.1-0.7-0.3l-1-1
			c-0.2-0.2-0.3-0.4-0.3-0.7v-1.6l-2-2L4.4,156l2,2H8c0.3,0,0.5,0.1,0.7,0.3l1,1c0.2,0.2,0.3,0.4,0.3,0.7V161.6z"/>
	</g>
	<g>
		<path class="st11" d="M10,155c-0.3,0-0.5-0.1-0.7-0.3c-0.4-0.4-0.4-1,0-1.4l4-4c0.4-0.4,1-0.4,1.4,0s0.4,1,0,1.4l-4,4
			C10.5,154.9,10.3,155,10,155z"/>
	</g>
	<g>
		<path class="st11" d="M16,157c-0.3,0-0.5-0.1-0.7-0.3l-4-4c-0.4-0.4-0.4-1,0-1.4s1-0.4,1.4,0l4,4c0.4,0.4,0.4,1,0,1.4
			C16.5,156.9,16.3,157,16,157z"/>
	</g>
</g>
<g id="robux-on">
	<path class="st12" d="M37,123v2h2.6c0.1-0.5,0.1-1.5,0-2H37z"/>
	<path class="st12" d="M42,114c-6.6,0-12,5.4-12,12c0,6.6,5.4,12,12,12s12-5.4,12-12C54,119.4,48.6,114,42,114z M47,131v1
		c0,0.6-0.4,1-1,1s-1-0.4-1-1v-1h-3c-0.2,0-0.4-0.1-0.6-0.2l-4.4-3.5v2.7c0,0.6-0.4,1-1,1s-1-0.4-1-1v-8c0-0.6,0.4-1,1-1h4
		c1.1,0,1.7,1.1,1.7,3c0,0.6-0.1,1.2-0.2,1.7c-0.4,1.2-1.2,1.3-1.5,1.3h-0.1l2.5,2H47c0.3,0,0.5-0.5,0.5-1c0-0.4-0.1-1-0.5-1h-2
		c-1.4,0-2.5-1.3-2.5-3c0-0.7,0.2-1.4,0.5-1.9c0.5-0.7,1.2-1.1,2-1.1v-1c0-0.6,0.4-1,1-1s1,0.4,1,1v1h1c0.6,0,1,0.4,1,1s-0.4,1-1,1
		h-3c-0.1,0-0.2,0-0.3,0.2s-0.2,0.5-0.2,0.8c0,0.4,0.2,1,0.5,1h2c1.4,0,2.5,1.3,2.5,3S48.4,131,47,131z"/>
</g>
<g id="robux">
	<g>
		<path class="st12" d="M14,138c-6.6,0-12-5.4-12-12c0-6.6,5.4-12,12-12s12,5.4,12,12C26,132.6,20.6,138,14,138z M14,116
			c-5.5,0-10,4.5-10,10s4.5,10,10,10s10-4.5,10-10S19.5,116,14,116z"/>
	</g>
	<g>
		<g>
			<path class="st12" d="M19,131h-5c-0.2,0-0.4-0.1-0.6-0.2L9,127.3v2.7c0,0.6-0.4,1-1,1s-1-0.4-1-1v-8c0-0.6,0.4-1,1-1h4
				c1.1,0,1.7,1.1,1.7,3c0,0.6-0.1,1.2-0.2,1.7c-0.4,1.2-1.2,1.3-1.5,1.3h-0.1l2.5,2H19c0.3,0,0.5-0.5,0.5-1c0-0.4-0.1-1-0.5-1h-2
				c-1.4,0-2.5-1.3-2.5-3c0-0.7,0.2-1.4,0.5-1.9c0.5-0.7,1.2-1.1,2-1.1h3c0.6,0,1,0.4,1,1s-0.4,1-1,1h-3c-0.1,0-0.2,0-0.3,0.2
				s-0.2,0.5-0.2,0.8c0,0.4,0.2,1,0.5,1h2c1.4,0,2.5,1.3,2.5,3S20.4,131,19,131z M9,125h2.6c0.1-0.5,0.1-1.5,0-2H9V125z"/>
		</g>
		<g>
			<path class="st12" d="M18,122c-0.6,0-1-0.4-1-1v-1c0-0.6,0.4-1,1-1s1,0.4,1,1v1C19,121.6,18.6,122,18,122z"/>
		</g>
		<g>
			<path class="st12" d="M18,133c-0.6,0-1-0.4-1-1v-1c0-0.6,0.4-1,1-1s1,0.4,1,1v1C19,132.6,18.6,133,18,133z"/>
		</g>
	</g>
</g>
<g id="favorite-on">
	<path class="st13" d="M49,110c-0.2,0-0.3,0-0.5-0.1l-6.5-3.7l-6.5,3.7c-0.3,0.2-0.7,0.2-1.1,0c-0.3-0.2-0.5-0.6-0.4-1l0.9-7.5
		l-4.7-4.7c-0.3-0.3-0.4-0.7-0.2-1c0.1-0.4,0.4-0.6,0.8-0.7l6.5-0.9l3.8-6.6c0.4-0.6,1.4-0.6,1.7,0l3.8,6.6l6.5,0.9
		c0.4,0.1,0.7,0.3,0.8,0.7c0.1,0.4,0,0.8-0.2,1l-4.7,4.7l0.9,7.5c0,0.4-0.1,0.7-0.4,1C49.4,109.9,49.2,110,49,110z"/>
</g>
<g id="favorite">
	<path class="st13" d="M21,110c-0.2,0-0.3,0-0.5-0.1l-6.5-3.7l-6.5,3.7c-0.3,0.2-0.7,0.2-1.1,0c-0.3-0.2-0.5-0.6-0.4-1l0.9-7.5
		l-4.7-4.7c-0.3-0.3-0.4-0.7-0.2-1c0.1-0.4,0.4-0.6,0.8-0.7l6.5-0.9l3.8-6.6c0.4-0.6,1.4-0.6,1.7,0l3.8,6.6l6.5,0.9
		c0.4,0.1,0.7,0.3,0.8,0.7c0.1,0.4,0,0.8-0.2,1l-4.7,4.7l0.9,7.5c0,0.4-0.1,0.7-0.4,1C21.4,109.9,21.2,110,21,110z M14,104
		c0.2,0,0.3,0,0.5,0.1l5.3,3l-0.8-6c0-0.3,0.1-0.6,0.3-0.8l3.6-3.6l-5-0.7c-0.3,0-0.6-0.2-0.7-0.5L14,90l-3.1,5.5
		c-0.2,0.3-0.4,0.5-0.7,0.5l-5,0.7l3.6,3.6c0.2,0.2,0.3,0.5,0.3,0.8l-0.8,6l5.3-3C13.7,104,13.8,104,14,104z"/>
</g>
<g id="leaderboard-on">
	<path class="st13" d="M35,60v8.5c0,0.3,0.1,0.6,0.4,0.8l4.2,3.4c0.2,0.2,0.4,0.5,0.4,0.8v1.9c0,0.4-0.2,0.7-0.6,0.9l-4.9,2.4
		c-0.3,0.2-0.6,0.5-0.6,0.9V80c0,0.6,0.4,1,1,1h14c0.6,0,1-0.4,1-1v-0.4c0-0.4-0.2-0.7-0.6-0.9l-4.9-2.4c-0.3-0.2-0.6-0.5-0.6-0.9
		v-1.9c0-0.3,0.1-0.6,0.4-0.8l4.2-3.4c0.2-0.2,0.4-0.5,0.4-0.8V60c0-0.6-0.4-1-1-1H36C35.4,59,35,59.4,35,60z"/>
	<g>
		<path class="st13" d="M33,69c-0.3,0-0.5-0.1-0.7-0.3l-2-2C30.1,66.5,30,66.3,30,66v-4c0-0.6,0.4-1,1-1h2c0.6,0,1,0.4,1,1
			s-0.4,1-1,1h-1v2.6l1.7,1.7c0.4,0.4,0.4,1,0,1.4C33.5,68.9,33.3,69,33,69z"/>
	</g>
	<g>
		<path class="st13" d="M51,69c-0.3,0-0.5-0.1-0.7-0.3c-0.4-0.4-0.4-1,0-1.4l1.7-1.7V63h-1c-0.6,0-1-0.4-1-1s0.4-1,1-1h2
			c0.6,0,1,0.4,1,1v4c0,0.3-0.1,0.5-0.3,0.7l-2,2C51.5,68.9,51.3,69,51,69z"/>
	</g>
</g>
<g id="leaderboard">
	<g>
		<path class="st13" d="M21,81H7c-0.6,0-1-0.4-1-1v-2c0-0.4,0.2-0.8,0.6-0.9l4.4-1.7v-1.8l-3.6-2.7C7.1,70.6,7,70.3,7,70V60
			c0-0.6,0.4-1,1-1h12c0.6,0,1,0.4,1,1v10c0,0.3-0.1,0.6-0.4,0.8L17,73.5v1.8l4.4,1.7c0.4,0.2,0.6,0.5,0.6,0.9v2
			C22,80.6,21.6,81,21,81z M8,79h12v-0.3L15.6,77c-0.4-0.2-0.6-0.6-0.6-1v-3c0-0.3,0.1-0.6,0.4-0.8l3.6-2.7V61H9v8.5l3.6,2.7
			c0.3,0.2,0.4,0.5,0.4,0.8v3c0,0.4-0.2,0.8-0.6,0.9L8,78.7V79z"/>
	</g>
	<g>
		<path class="st13" d="M5,69c-0.3,0-0.5-0.1-0.7-0.3l-2-2C2.1,66.5,2,66.3,2,66v-4c0-0.6,0.4-1,1-1h2c0.6,0,1,0.4,1,1s-0.4,1-1,1H4
			v2.6l1.7,1.7c0.4,0.4,0.4,1,0,1.4C5.5,68.9,5.3,69,5,69z"/>
	</g>
	<g>
		<path class="st13" d="M23,69c-0.3,0-0.5-0.1-0.7-0.3c-0.4-0.4-0.4-1,0-1.4l1.7-1.7V63h-1c-0.6,0-1-0.4-1-1s0.4-1,1-1h2
			c0.6,0,1,0.4,1,1v4c0,0.3-0.1,0.5-0.3,0.7l-2,2C23.5,68.9,23.3,69,23,69z"/>
	</g>
</g>
<g id="clanpoint">
	<g>
		<path class="st14" d="M14,50c-0.1,0-0.2,0-0.4-0.1C13.4,49.8,8,47.7,8,43.5V38c0-0.6,0.4-1,1-1h10c0.6,0,1,0.4,1,1v5.5
			c0,4.1-5.4,6.3-5.6,6.4C14.3,50,14.1,50,14,50z M10,39v4.5c0,2.1,2.6,3.7,4,4.4c1.4-0.7,4-2.3,4-4.4V39H10z"/>
	</g>
	<g>
		<path class="st14" d="M14,54C7.4,54,2,48.6,2,42s5.4-12,12-12s12,5.4,12,12S20.6,54,14,54z M14,32C8.5,32,4,36.5,4,42
			s4.5,10,10,10s10-4.5,10-10S19.5,32,14,32z"/>
	</g>
	<g>
		<path class="st14" d="M14,39c-0.6,0-1-0.4-1-1v-2c0-0.6,0.4-1,1-1s1,0.4,1,1v2C15,38.6,14.6,39,14,39z"/>
	</g>
	<g>
		<path class="st14" d="M9,39c-0.6,0-1-0.4-1-1v-2c0-0.6,0.4-1,1-1s1,0.4,1,1v2C10,38.6,9.6,39,9,39z"/>
	</g>
	<g>
		<path class="st14" d="M19,39c-0.6,0-1-0.4-1-1v-2c0-0.6,0.4-1,1-1s1,0.4,1,1v2C20,38.6,19.6,39,19,39z"/>
	</g>
</g>
<g id="playerpoint">
	<g>
		<path class="st15" d="M14,26C7.4,26,2,20.6,2,14S7.4,2,14,2s12,5.4,12,12S20.6,26,14,26z M14,4C8.5,4,4,8.5,4,14s4.5,10,10,10
			s10-4.5,10-10S19.5,4,14,4z"/>
	</g>
	<g>
		<path class="st15" d="M17.8,20.2c-0.2,0-0.3,0-0.5-0.1L14,18.2l-3.3,1.9c-0.3,0.2-0.7,0.2-1.1,0c-0.3-0.2-0.5-0.6-0.4-1l0.5-3.9
			l-2.4-2.4c-0.3-0.3-0.4-0.7-0.2-1c0.1-0.4,0.4-0.6,0.8-0.7l3.3-0.5l1.9-3.4c0.4-0.6,1.4-0.6,1.7,0l1.9,3.4l3.3,0.5
			c0.4,0.1,0.7,0.3,0.8,0.7s0,0.8-0.2,1l-2.4,2.4l0.5,3.9c0,0.4-0.1,0.7-0.4,1C18.2,20.2,18,20.2,17.8,20.2z M14,16
			c0.2,0,0.3,0,0.5,0.1l2.1,1.2L16.3,15c0-0.3,0.1-0.6,0.3-0.8l1.3-1.3L16,12.6c-0.3,0-0.6-0.2-0.7-0.5L14,9.8l-1.3,2.3
			c-0.2,0.3-0.4,0.5-0.7,0.5l-1.8,0.3l1.3,1.3c0.2,0.2,0.3,0.5,0.3,0.8l-0.3,2.4l2.1-1.2C13.7,16.1,13.8,16,14,16z"/>
	</g>
</g>
<polygon class="st16" points="14,226.1 16,227.6 18.4,226.9 19.6,229 22.1,229.2 22.5,231.7 24.8,232.7 24.3,235.2 26,237
	24.6,239.1 25.6,241.4 23.6,242.9 23.6,245.4 21.2,246 20.3,248.3 17.9,248.1 16.2,249.9 14,248.8 11.8,249.9 10.1,248.1 7.7,248.3
	6.8,246 4.4,245.4 4.4,242.9 2.4,241.4 3.4,239.1 2,237 3.7,235.2 3.2,232.7 5.5,231.7 5.9,229.2 8.4,229 9.6,226.9 12,227.6 "/>
</svg>
