<?xml version="1.0" encoding="utf-8"?>
<!-- Generator: Adobe Illustrator 21.1.0, SVG Export Plug-In . SVG Version: 6.00 Build 0)  -->
<!DOCTYPE svg PUBLIC "-//W3C//DTD SVG 1.1//EN" "http://www.w3.org/Graphics/SVG/1.1/DTD/svg11.dtd">
<svg version="1.1" id="Chat" xmlns="http://www.w3.org/2000/svg" xmlns:xlink="http://www.w3.org/1999/xlink" x="0px" y="0px"
	 width="56px" height="896px" viewBox="0 0 56 896" style="enable-background:new 0 0 56 896;" xml:space="preserve" preserveAspectRatio="none">
<style type="text/css">
	.st0{fill:none;stroke:#757575;stroke-width:2;stroke-linecap:round;stroke-linejoin:round;stroke-miterlimit:10;}
	.st1{fill:#757575;stroke:#757575;stroke-width:2;stroke-linecap:round;stroke-linejoin:round;stroke-miterlimit:10;}
	.st2{fill:#D86868;}
	.st3{fill:none;stroke:#D86868;stroke-width:2;stroke-linecap:round;stroke-linejoin:round;stroke-miterlimit:10;}
	.st4{fill:none;stroke:#B8B8B8;stroke-width:2;stroke-linecap:round;stroke-linejoin:round;stroke-miterlimit:10;}
	.st5{fill:#00A2FF;}
	.st6{fill:none;stroke:#FFFFFF;stroke-width:2;stroke-linecap:round;stroke-linejoin:round;stroke-miterlimit:10;}
	.st7{fill:#FFFFFF;}
	.st8{fill:none;stroke:#00A2FF;stroke-width:2;stroke-linecap:round;stroke-linejoin:round;stroke-miterlimit:10;}
	.st9{fill:#757575;}
	.st10{fill:#191919;}
	.st11{fill:none;stroke:#191919;stroke-width:2;stroke-linecap:round;stroke-linejoin:round;stroke-miterlimit:10;}
	.st12{fill:#B8B8B8;}
</style>
<g id="unpin-on">
	<g>
		<line class="st0" x1="44" y1="889" x2="35" y2="880"/>
		<polygon class="st1" points="41,877 45,875 46,872 52,878 49,879 47,883 		"/>
		<polygon class="st1" points="38,883 32,892 41,886 		"/>
	</g>
	<line class="st0" x1="32" y1="872" x2="52" y2="892"/>
</g>
<g id="unpin">
	<g>
		<line class="st0" x1="16" y1="889" x2="7" y2="880"/>
		<polyline class="st0" points="13,877 17,875 18,872 24,878 21,879 19,883 		"/>
		<polyline class="st0" points="10,883 4,892 13,886 		"/>
	</g>
	<line class="st0" x1="4" y1="872" x2="24" y2="892"/>
</g>
<g id="pin-on">
	<polygon class="st1" points="46,844 52,850 49,851 46,855 44,861 35,852 41,850 45,847 	"/>
	<polygon class="st1" points="38,855 32,864 41,858 	"/>
</g>
<g id="pin">
	<polygon class="st0" points="18,844 24,850 21,851 18,855 16,861 7,852 13,850 17,847 	"/>
	<polyline class="st0" points="10,855 4,864 13,858 	"/>
</g>
<g id="resend-on">
	<path class="st2" d="M42,814c-6.6,0-12,5.4-12,12s5.4,12,12,12s12-5.4,12-12S48.6,814,42,814z M46.2,830.2
		c-1.1,1.1-2.6,1.8-4.2,1.8s-3.1-0.6-4.2-1.8c-0.4-0.4-0.4-1,0-1.4s1-0.4,1.4,0c1.5,1.5,4.1,1.5,5.7,0c0.8-0.8,1.2-1.8,1.2-2.8
		s-0.4-2.1-1.2-2.8c-1.4-1.4-3.9-1.5-5.4-0.2H40c0.6,0,1,0.4,1,1s-0.4,1-1,1h-3c-0.6,0-1-0.4-1-1v-3c0-0.6,0.4-1,1-1s1,0.4,1,1v0.5
		c1.1-1,2.5-1.5,4-1.5c1.6,0,3.1,0.6,4.2,1.8c1.1,1.1,1.8,2.6,1.8,4.2S47.4,829.1,46.2,830.2z"/>
</g>
<g id="resend">
	<g>
		<path class="st2" d="M14,816c5.5,0,10,4.5,10,10s-4.5,10-10,10s-10-4.5-10-10S8.5,816,14,816 M14,814c-6.6,0-12,5.4-12,12
			s5.4,12,12,12s12-5.4,12-12S20.6,814,14,814L14,814z"/>
	</g>
	<path class="st3" d="M10.5,822.5c2-2,5.1-2,7.1,0s2,5.1,0,7.1s-5.1,2-7.1,0"/>
	<polyline class="st3" points="9,821 9,824 12,824 	"/>
</g>
<g id="friends">
	<circle class="st4" cx="11" cy="792" r="5"/>
	<path class="st4" d="M18,788.1c2.3,0.5,4,2.5,4,4.9c0,2.1-1.2,3.8-3,4.6"/>
	<path class="st4" d="M11,800c0,0,5,0,6,1s2,6,2,6s-3.1,2-8,2s-8-2-8-2s1-5,2-6S11,800,11,800z"/>
	<path class="st4" d="M19,797.6c1.3,0.1,3.5,2,4,2.4c1,1,2,6,2,6s-1.1,1.4-3,2"/>
</g>
<g id="VIP-on">
	<path class="st5" d="M53.6,764.2c-0.3-0.2-0.8-0.3-1.1-0.1l-4.2,2.5l-5.5-7.3c-0.4-0.5-1.2-0.5-1.6,0l-5.5,7.3l-4.2-2.5
		c-0.3-0.2-0.8-0.2-1.1,0.1c-0.3,0.2-0.5,0.7-0.4,1l3,12c0.1,0.4,0.5,0.8,1,0.8h16c0.5,0,0.9-0.3,1-0.8l3-12
		C54.1,764.9,53.9,764.4,53.6,764.2z"/>
	<path class="st5" d="M50,779H34c-0.6,0-1,0.4-1,1s0.4,1,1,1h16c0.6,0,1-0.4,1-1S50.6,779,50,779z"/>
</g>
<g id="VIP">
	<polygon class="st0" points="3,765 6,777 22,777 25,765 20,768 14,760 8,768 	"/>
	<line class="st0" x1="6" y1="780" x2="22" y2="780"/>
</g>
<g id="my-place-on">
	<path class="st5" d="M53,736h-4.4l-1.7-3.4c-0.2-0.3-0.5-0.6-0.9-0.6h-8c-0.4,0-0.7,0.2-0.9,0.6l-1.7,3.4H31c-0.6,0-1,0.4-1,1v14
		c0,0.6,0.4,1,1,1h22c0.6,0,1-0.4,1-1v-14C54,736.4,53.6,736,53,736z M35,740c0,0.6-0.4,1-1,1s-1-0.4-1-1v-1c0-0.6,0.4-1,1-1
		s1,0.4,1,1V740z M44.7,738h-5.4l-2-1.3l1.3-2.7h6.8l1.3,2.7L44.7,738z M51,740c0,0.6-0.4,1-1,1s-1-0.4-1-1v-1c0-0.6,0.4-1,1-1
		s1,0.4,1,1V740z"/>
</g>
<g id="my-place">
	<polygon class="st0" points="25,751 20,751 18,751 10,751 8,751 3,751 3,737 8,737 11,739 17,739 20,737 25,737 	"/>
	<polyline class="st0" points="8,737 10,733 18,733 20,737 	"/>
	<line class="st0" x1="6" y1="737" x2="6" y2="740"/>
	<line class="st0" x1="22" y1="737" x2="22" y2="740"/>
</g>
<polygon id="recommended-on" class="st5" points="42.9,703 45,706 45,709 43.5,712 50.9,712 53,716.1 48.5,725 37.8,725 31,722 
	31,712 35.9,712 39.9,707 40.9,703 "/>
<polygon id="recommended" class="st0" points="9,713 13,708 14,704 17,704 18,706 18,709 16,713 23,713 24,716 20,724 10,724 4,722 
	4,713 "/>
<g id="popular-on">
	<path class="st5" d="M44,698L44,698c-0.4,0-0.7-0.2-0.9-0.4s-0.2-0.6-0.1-0.9c1-2.9,0.6-4.9-1-6.4c-1.7,1.5-2,3.5-1.1,6.4
		c0.1,0.3,0,0.6-0.1,0.9c-0.2,0.3-0.5,0.4-0.8,0.4c-0.2,0-2.5-0.1-5.1-3c-5.8-6.4-2-10.8,1.3-14.8c1.5-1.8,3-3.6,3.9-5.6
		c0.1-0.3,0.4-0.5,0.7-0.6s0.7,0,0.9,0.2c2,1.9,3.5,4.9,4.1,8c0.1-0.4,0.2-0.8,0.2-1.3c0-0.4,0.3-0.8,0.6-0.9
		c0.4-0.1,0.8-0.1,1.1,0.2c4.9,4.9,5.4,10.1,1.4,14.7l0,0C46.7,697.8,44.6,698,44,698z M48.4,694.4L48.4,694.4L48.4,694.4z"/>
</g>
<path id="popular" class="st0" d="M20.4,694.4C18,697.1,16,697,16,697c1-3,1-5.9-2-8c-3,2.1-3,5.1-2,8c0,0-2,0-4.4-2.6
	C0.1,686.1,10,682,13,675c2.6,2.4,4.1,6.7,4,10c1-1,2-2.2,2-4C22,684,25,689,20.4,694.4z"/>
<g id="favorite-on_1_">
	<path class="st5" d="M49,670c-0.2,0-0.3,0-0.5-0.1l-6.5-3.7l-6.5,3.7c-0.3,0.2-0.7,0.2-1.1,0c-0.3-0.2-0.5-0.6-0.4-1l0.9-7.5
		l-4.7-4.7c-0.3-0.3-0.4-0.7-0.2-1c0.1-0.4,0.4-0.6,0.8-0.7l6.5-0.9l3.8-6.6c0.4-0.6,1.4-0.6,1.7,0l3.8,6.6l6.5,0.9
		c0.4,0.1,0.7,0.3,0.8,0.7s0,0.8-0.2,1l-4.7,4.7l0.9,7.5c0,0.4-0.1,0.7-0.4,1C49.4,669.9,49.2,670,49,670z"/>
</g>
<polygon id="favorite_1_" class="st0" points="14,648 10,655 3,656 8,661 7,669 14,665 21,669 20,661 25,656 18,655 "/>
<path id="recent-on" class="st5" d="M42,618c-6.6,0-12,5.4-12,12s5.4,12,12,12s12-5.4,12-12S48.6,618,42,618z M47,631h-5
	c-0.6,0-1-0.4-1-1v-7c0-0.6,0.4-1,1-1s1,0.4,1,1v6h4c0.6,0,1,0.4,1,1S47.6,631,47,631z"/>
<g id="recent">
	<circle class="st0" cx="14" cy="630" r="11"/>
	<polyline class="st0" points="14,623 14,630 19,630 	"/>
</g>
<g id="search-white">
	<circle class="st6" cx="12" cy="600" r="8"/>
	<line class="st6" x1="24" y1="612" x2="19" y2="607"/>
</g>
<path id="play-together-on" class="st7" d="M50.5,574.9c0.3-0.2,0.5-0.5,0.5-0.9v-4c0-0.3-0.2-0.7-0.5-0.8l-4.8-3
	c-0.2-0.1-0.3-0.2-0.5-0.2H36c-0.2,0-0.4,0-0.5,0.1l-5,3c-0.3,0.2-0.5,0.5-0.5,0.9v11c0,0.6,0.4,1,1,1h4c0.2,0,0.3,0,0.4-0.1
	l3.8-1.9H42c0.6,0,1-0.4,1-1v-8.2l6.5,4C49.8,575,50.2,575.1,50.5,574.9z M39,575h-1v1c0,0.6-0.4,1-1,1s-1-0.4-1-1v-1h-1
	c-0.6,0-1-0.4-1-1s0.4-1,1-1h1v-1c0-0.6,0.4-1,1-1s1,0.4,1,1v1h1c0.6,0,1,0.4,1,1S39.6,575,39,575z M54,580c0,0.4-0.2,0.7-0.5,0.9
	l-7,4c-0.2,0.1-0.3,0.1-0.5,0.1s-0.3,0-0.5-0.1c-0.3-0.2-0.5-0.5-0.5-0.9v-8c0-0.4,0.2-0.7,0.5-0.9s0.7-0.2,1,0l7,4
	C53.8,579.3,54,579.6,54,580z"/>
<path id="play-together" class="st7" d="M15,579c0,0.6-0.4,1-1,1h-2.8l-3.8,1.9C7.3,582,7.2,582,7,582H3c-0.6,0-1-0.4-1-1v-11
	c0-0.4,0.2-0.7,0.5-0.9l5-3C7.6,566,7.8,566,8,566h9.2c0.2,0,0.4,0.1,0.5,0.2l4.8,3c0.3,0.2,0.5,0.5,0.5,0.8v4c0,0.6-0.4,1-1,1
	s-1-0.4-1-1v-3.4l-4-2.6H8.3L4,570.6v9.4h2.8l3.8-1.9c0.1-0.1,0.3-0.1,0.4-0.1h3C14.6,578,15,578.4,15,579z M9,577c0.6,0,1-0.4,1-1
	v-1h1c0.6,0,1-0.4,1-1s-0.4-1-1-1h-1v-1c0-0.6-0.4-1-1-1s-1,0.4-1,1v1H7c-0.6,0-1,0.4-1,1s0.4,1,1,1h1v1C8,576.6,8.4,577,9,577z
	 M18.5,572.5c0-0.8-0.7-1.5-1.5-1.5s-1.5,0.7-1.5,1.5s0.7,1.5,1.5,1.5S18.5,573.3,18.5,572.5z M26,580c0,0.4-0.2,0.7-0.5,0.9l-7,4
	c-0.2,0.1-0.3,0.1-0.5,0.1s-0.3,0-0.5-0.1c-0.3-0.2-0.5-0.5-0.5-0.9v-8c0-0.4,0.2-0.7,0.5-0.9s0.7-0.2,1,0l7,4
	C25.8,579.3,26,579.6,26,580z M23,580l-4-2.3v4.6L23,580z"/>
<g id="game-on">
	<path class="st7" d="M53.2,541.4l-4.3-2.9c-0.5-0.3-1.3-0.6-1.8-0.6H37c-0.5,0-1.4,0.2-1.8,0.6l-4.3,2.9c-0.5,0.3-0.8,1-0.8,1.6v10
		c0,0.5,0.5,1,1,1h3c0.5,0,1.4-0.2,1.9-0.4l2.2-1.1c0.5-0.2,1.3-0.4,1.9-0.4h4c0.5,0,1.4,0.2,1.9,0.4l2.2,1.1
		c0.5,0.2,1.3,0.4,1.9,0.4h3c0.5,0,1-0.5,1-1v-10C54,542.5,53.6,541.8,53.2,541.4z M39,547h-1v1c0,0.6-0.4,1-1,1s-1-0.4-1-1v-1h-1
		c-0.6,0-1-0.4-1-1s0.4-1,1-1h1v-1c0-0.6,0.4-1,1-1s1,0.4,1,1v1h1c0.6,0,1,0.4,1,1S39.6,547,39,547z M46,546c-0.8,0-1.5-0.7-1.5-1.5
		s0.7-1.5,1.5-1.5s1.5,0.7,1.5,1.5S46.8,546,46,546z M49,549c-0.8,0-1.5-0.7-1.5-1.5s0.7-1.5,1.5-1.5s1.5,0.7,1.5,1.5
		S49.8,549,49,549z"/>
</g>
<g id="game_1_">
	<polygon class="st6" points="20.2,539 8,539 3,542 3,553 7,553 12,551 16,551 21,553 25,553 25,542 	"/>
	<line class="st6" x1="7" y1="546" x2="11" y2="546"/>
	<line class="st6" x1="9" y1="544" x2="9" y2="548"/>
	<path class="st7" d="M18,543c-0.8,0-1.5,0.7-1.5,1.5s0.7,1.5,1.5,1.5s1.5-0.7,1.5-1.5S18.8,543,18,543L18,543z"/>
	<path class="st7" d="M21,546c-0.8,0-1.5,0.7-1.5,1.5s0.7,1.5,1.5,1.5s1.5-0.7,1.5-1.5S21.8,546,21,546L21,546z"/>
</g>
<polyline id="next" class="st0" points="9.9,510 17.9,518 9.9,526 "/>
<g id="muted">
	<path class="st0" d="M16,500c-0.5,0.6-1.1,1-2,1s-1.5-0.4-2-1"/>
	<polyline class="st0" points="21,488 21,493 23.1,497 11,497 	"/>
	<path class="st0" d="M5,495l2-2v-4.9c0-3,2-5.5,4.7-6.5L14,479l0,0l2.3,2.7c0.3,0.1,0.5,0.2,0.8,0.3"/>
	<line class="st0" x1="4" y1="500" x2="24" y2="480"/>
</g>
<g id="error">
	<circle class="st3" cx="14" cy="462" r="11"/>
	<line class="st3" x1="14" y1="456" x2="14" y2="463"/>
	<line class="st3" x1="14" y1="467" x2="14" y2="468"/>
</g>
<g id="notification">
	<path class="st0" d="M16,444c-0.5,0.6-1.1,1-2,1s-1.5-0.4-2-1"/>
	<path class="st0" d="M21,438v-5.9c0-3-2-5.5-4.6-6.5L14,423l0,0l-2.4,2.7C9,426.6,7,429.2,7,432.1v5.9l-2.1,3h18.3L21,438z"/>
</g>
<polyline id="checkmark" class="st6" points="5,406 11,412 23,400 "/>
<g id="add-on">
	<line class="st6" x1="32" y1="378" x2="52" y2="378"/>
	<line class="st6" x1="42" y1="368" x2="42" y2="388"/>
</g>
<g id="add">
	<line class="st8" x1="4" y1="378" x2="24" y2="378"/>
	<line class="st8" x1="14" y1="368" x2="14" y2="388"/>
</g>
<g id="more-on">
	<path class="st9" d="M42,347c-1.7,0-3,1.3-3,3s1.3,3,3,3s3-1.3,3-3S43.7,347,42,347z"/>
	<path class="st9" d="M51,347c-1.7,0-3,1.3-3,3s1.3,3,3,3s3-1.3,3-3S52.7,347,51,347z"/>
	<path class="st9" d="M33,347c-1.7,0-3,1.3-3,3s1.3,3,3,3s3-1.3,3-3S34.7,347,33,347z"/>
</g>
<g id="more">
	<g>
		<path class="st9" d="M5,349c0.6,0,1,0.4,1,1s-0.4,1-1,1s-1-0.4-1-1S4.4,349,5,349 M5,347c-1.7,0-3,1.3-3,3s1.3,3,3,3s3-1.3,3-3
			S6.7,347,5,347L5,347z"/>
	</g>
	<g>
		<path class="st9" d="M14,349c0.6,0,1,0.4,1,1s-0.4,1-1,1s-1-0.4-1-1S13.4,349,14,349 M14,347c-1.7,0-3,1.3-3,3s1.3,3,3,3
			s3-1.3,3-3S15.7,347,14,347L14,347z"/>
	</g>
	<g>
		<path class="st9" d="M23,349c0.6,0,1,0.4,1,1s-0.4,1-1,1s-1-0.4-1-1S22.4,349,23,349 M23,347c-1.7,0-3,1.3-3,3s1.3,3,3,3
			s3-1.3,3-3S24.7,347,23,347L23,347z"/>
	</g>
</g>
<g id="group-member">
	<g>
		<circle class="st0" cx="14" cy="316" r="4"/>
		<path class="st0" d="M16,330.8c-0.6,0.1-1.3,0.2-2,0.2c-3.8,0-6-2-6-2s0.2-4.2,1-5s5-1,5-1s2.5,0.1,4,0.5"/>
		<g>
			<path class="st0" d="M8,321c-1.7,0-3-1.3-3-3c0-1.3,0.8-2.4,2-2.8"/>
			<path class="st0" d="M8,321c-0.7,0.1-3.4,1.6-3.7,1.9C3.7,323.6,3,327,3,327s0.9,0.8,2,1"/>
			<path class="st0" d="M20,321c1.7,0,3-1.3,3-3c0-1.3-0.8-2.4-2-2.8"/>
			<path class="st0" d="M20,321c0.7,0.1,3.4,1.6,3.7,1.9"/>
		</g>
	</g>
	<polygon class="st0" points="25,330 23,330 21,332 21,330 19,330 19,326 25,326 	"/>
</g>
<g id="group-name">
	<rect x="3" y="287" class="st0" width="22" height="14"/>
	<rect x="7" y="291" class="st0" width="6" height="6"/>
	<line class="st0" x1="17" y1="291" x2="21" y2="291"/>
	<line class="st0" x1="17" y1="294" x2="21" y2="294"/>
</g>
<g id="multiple-chat-on">
	<g>
		<path class="st9" d="M35,272c-0.1,0-0.3,0-0.4-0.1c-0.3-0.2-0.6-0.5-0.6-0.9v-3h-3c-0.6,0-1-0.4-1-1v-10c0-0.6,0.4-1,1-1h16
			c0.6,0,1,0.4,1,1v10c0,0.6-0.4,1-1,1h-6.5l-4.8,3.8C35.4,271.9,35.2,272,35,272z"/>
	</g>
	<g>
		<path class="st9" d="M44,276c-0.1,0-0.3,0-0.4-0.1c-0.4-0.2-0.6-0.5-0.6-0.9v-2h-2c-0.6,0-1-0.4-1-1v-2c0-0.6,0.4-1,1-1h8v-5
			c0-0.6,0.4-1,1-1h3c0.6,0,1,0.4,1,1v8c0,0.6-0.4,1-1,1h-5.6l-2.7,2.7C44.5,275.9,44.3,276,44,276z"/>
	</g>
</g>
<g id="multiple-chat">
	<polygon class="st0" points="19,257 3,257 3,267 7,267 7,271 12.1,267 19,267 	"/>
	<polyline class="st0" points="22,264 25,264 25,272 19,272 16,275 16,272 13,272 13,270 	"/>
</g>
<g id="back-blk">
	<path class="st10" d="M46,229c0.3,0,0.5,0.1,0.7,0.3c0.4,0.4,0.4,1,0,1.4l-7.3,7.3l7.3,7.3c0.4,0.4,0.4,1,0,1.4s-1,0.4-1.4,0l-8-8
		c-0.4-0.4-0.4-1,0-1.4l8-8C45.5,229.1,45.7,229,46,229z"/>
</g>
<g id="back">
	<path class="st7" d="M18,229c0.3,0,0.5,0.1,0.7,0.3c0.4,0.4,0.4,1,0,1.4l-7.3,7.3l7.3,7.3c0.4,0.4,0.4,1,0,1.4s-1,0.4-1.4,0l-8-8
		c-0.4-0.4-0.4-1,0-1.4l8-8C17.5,229.1,17.7,229,18,229z"/>
</g>
<g id="close-blk">
	<line class="st11" x1="35" y1="203" x2="49" y2="217"/>
	<line class="st11" x1="49" y1="203" x2="35" y2="217"/>
</g>
<g id="close">
	<line class="st6" x1="7" y1="203" x2="21" y2="217"/>
	<line class="st6" x1="21" y1="203" x2="7" y2="217"/>
</g>
<g id="info-blk-on">
	<path class="st10" d="M53,180h-1.2c-0.3-1.3-0.8-2.5-1.5-3.5l0.9-0.9c0.4-0.4,0.4-1,0-1.4l-1.4-1.4c-0.4-0.4-1-0.4-1.4,0l-0.9,0.9
		c-1-0.7-2.2-1.2-3.5-1.5V171c0-0.6-0.4-1-1-1h-2c-0.6,0-1,0.4-1,1v1.2c-1.3,0.3-2.5,0.8-3.5,1.5l-0.9-0.9c-0.4-0.4-1-0.4-1.4,0
		l-1.4,1.4c-0.4,0.4-0.4,1,0,1.4l0.9,0.9c-0.7,1-1.2,2.2-1.5,3.5H31c-0.6,0-1,0.4-1,1v2c0,0.6,0.4,1,1,1h1.2
		c0.3,1.3,0.8,2.5,1.5,3.5l-0.9,0.9c-0.4,0.4-0.4,1,0,1.4l1.4,1.4c0.4,0.4,1,0.4,1.4,0l0.9-0.9c1,0.7,2.2,1.2,3.5,1.5v1.2
		c0,0.6,0.4,1,1,1h2c0.6,0,1-0.4,1-1v-1.2c1.3-0.3,2.5-0.8,3.5-1.5l0.9,0.9c0.4,0.4,1,0.4,1.4,0l1.4-1.4c0.4-0.4,0.4-1,0-1.4
		l-0.9-0.9c0.7-1,1.2-2.2,1.5-3.5H53c0.6,0,1-0.4,1-1v-2C54,180.4,53.6,180,53,180z M42,188c-3.3,0-6-2.7-6-6s2.7-6,6-6s6,2.7,6,6
		S45.3,188,42,188z"/>
</g>
<g id="info-blk">
	<path class="st11" d="M25,184v-4h-2.2c-0.2-1-0.6-1.9-1.2-2.8l1.5-1.5l-2.8-2.8l-1.5,1.5c-0.8-0.5-1.8-0.9-2.8-1.2V171h-4v2.2
		c-1,0.2-1.9,0.6-2.8,1.2l-1.5-1.5l-2.8,2.8l1.5,1.5C5.9,178,5.5,179,5.2,180H3v4h2.2c0.2,1,0.6,1.9,1.2,2.8l-1.5,1.5l2.8,2.8
		l1.5-1.5c0.8,0.5,1.8,0.9,2.8,1.2v2.2h4v-2.2c1-0.2,1.9-0.6,2.8-1.2l1.5,1.5l2.8-2.8l-1.5-1.5c0.5-0.8,0.9-1.8,1.2-2.8H25z"/>
	<circle class="st11" cx="14" cy="182" r="5"/>
</g>
<g id="info-on">
	<path class="st7" d="M53,152h-1.2c-0.3-1.3-0.8-2.5-1.5-3.5l0.9-0.9c0.4-0.4,0.4-1,0-1.4l-1.4-1.4c-0.4-0.4-1-0.4-1.4,0l-0.9,0.9
		c-1-0.7-2.2-1.2-3.5-1.5V143c0-0.6-0.4-1-1-1h-2c-0.6,0-1,0.4-1,1v1.2c-1.3,0.3-2.5,0.8-3.5,1.5l-0.9-0.9c-0.4-0.4-1-0.4-1.4,0
		l-1.4,1.4c-0.4,0.4-0.4,1,0,1.4l0.9,0.9c-0.7,1-1.2,2.2-1.5,3.5H31c-0.6,0-1,0.4-1,1v2c0,0.6,0.4,1,1,1h1.2
		c0.3,1.3,0.8,2.5,1.5,3.5l-0.9,0.9c-0.4,0.4-0.4,1,0,1.4l1.4,1.4c0.4,0.4,1,0.4,1.4,0l0.9-0.9c1,0.7,2.2,1.2,3.5,1.5v1.2
		c0,0.6,0.4,1,1,1h2c0.6,0,1-0.4,1-1v-1.2c1.3-0.3,2.5-0.8,3.5-1.5l0.9,0.9c0.4,0.4,1,0.4,1.4,0l1.4-1.4c0.4-0.4,0.4-1,0-1.4
		l-0.9-0.9c0.7-1,1.2-2.2,1.5-3.5H53c0.6,0,1-0.4,1-1v-2C54,152.4,53.6,152,53,152z M42,160c-3.3,0-6-2.7-6-6s2.7-6,6-6s6,2.7,6,6
		S45.3,160,42,160z"/>
</g>
<g id="info">
	<path class="st6" d="M25,156v-4h-2.2c-0.2-1-0.6-1.9-1.2-2.8l1.5-1.5l-2.8-2.8l-1.5,1.5c-0.8-0.5-1.8-0.9-2.8-1.2V143h-4v2.2
		c-1,0.2-1.9,0.6-2.8,1.2l-1.5-1.5l-2.8,2.8l1.5,1.5C5.9,150,5.5,151,5.2,152H3v4h2.2c0.2,1,0.6,1.9,1.2,2.8l-1.5,1.5l2.8,2.8
		l1.5-1.5c0.8,0.5,1.8,0.9,2.8,1.2v2.2h4v-2.2c1-0.2,1.9-0.6,2.8-1.2l1.5,1.5l2.8-2.8l-1.5-1.5c0.5-0.8,0.9-1.8,1.2-2.8H25z"/>
	<circle class="st6" cx="14" cy="154" r="5"/>
</g>
<g id="party-blk-on">
	<path class="st10" d="M34.6,130.8l2.7-1.8h5.4l2.7,1.8c0.2,0.1,0.4,0.2,0.6,0.2h3c0.6,0,1-0.4,1-1v-10.1c0-0.3-0.2-0.6-0.4-0.8
		l-4-2.9c-0.2-0.1-0.4-0.2-0.6-0.2H35c-0.2,0-0.4,0.1-0.6,0.2l-4,2.9c-0.3,0.2-0.4,0.5-0.4,0.8V130c0,0.6,0.4,1,1,1h3
		C34.2,131,34.4,130.9,34.6,130.8z M45,123c0.8,0,1.5,0.7,1.5,1.5S45.8,126,45,126s-1.5-0.7-1.5-1.5S44.2,123,45,123z M42,120
		c0.8,0,1.5,0.7,1.5,1.5S42.8,123,42,123s-1.5-0.7-1.5-1.5S41.2,120,42,120z M33,123c0-0.6,0.4-1,1-1h1v-1c0-0.6,0.4-1,1-1
		s1,0.4,1,1v1h1c0.6,0,1,0.4,1,1s-0.4,1-1,1h-1v1c0,0.6-0.4,1-1,1s-1-0.4-1-1v-1h-1C33.4,124,33,123.6,33,123z"/>
	<path class="st10" d="M53.7,124.2l-1-0.9c-0.4-0.4-1-0.3-1.4,0.1s-0.3,1,0.1,1.4l0.7,0.6v8.6h-1.7l-2.7-1.8
		c-0.2-0.1-0.4-0.2-0.6-0.2h-6c-0.2,0-0.4,0.1-0.6,0.2l-2.7,1.8H36v-1c0-0.6-0.4-1-1-1s-1,0.4-1,1v2c0,0.6,0.4,1,1,1h3
		c0.2,0,0.4-0.1,0.6-0.2l2.7-1.8h5.4l2.7,1.8c0.2,0.1,0.4,0.2,0.6,0.2h3c0.6,0,1-0.4,1-1v-10.1C54,124.6,53.9,124.4,53.7,124.2z"/>
</g>
<g id="party-blk">
	<g>
		<polygon class="st11" points="17,117 7,117 3,119.9 3,130 6,130 9,128 15,128 18,130 21,130 21,119.9 		"/>
		<line class="st11" x1="6" y1="123" x2="10" y2="123"/>
		<line class="st11" x1="8" y1="121" x2="8" y2="125"/>
		<g>
			<path class="st10" d="M14,120c-0.8,0-1.5,0.7-1.5,1.5s0.7,1.5,1.5,1.5s1.5-0.7,1.5-1.5S14.8,120,14,120L14,120z"/>
		</g>
		<g>
			<path class="st10" d="M17,123c-0.8,0-1.5,0.7-1.5,1.5s0.7,1.5,1.5,1.5s1.5-0.7,1.5-1.5S17.8,123,17,123L17,123z"/>
		</g>
	</g>
	<g>
		<polyline class="st11" points="7,133 7,135 10,135 13,133 19,133 22,135 25,135 25,124.9 24,124 		"/>
	</g>
</g>
<g id="party-on">
	<path class="st7" d="M34.6,102.8l2.7-1.8h5.4l2.7,1.8c0.2,0.1,0.4,0.2,0.6,0.2h3c0.6,0,1-0.4,1-1V91.9c0-0.3-0.2-0.6-0.4-0.8
		l-4-2.9C45.4,88.1,45.2,88,45,88H35c-0.2,0-0.4,0.1-0.6,0.2l-4,2.9c-0.3,0.2-0.4,0.5-0.4,0.8V102c0,0.6,0.4,1,1,1h3
		C34.2,103,34.4,102.9,34.6,102.8z M45,95c0.8,0,1.5,0.7,1.5,1.5S45.8,98,45,98s-1.5-0.7-1.5-1.5S44.2,95,45,95z M42,92
		c0.8,0,1.5,0.7,1.5,1.5S42.8,95,42,95s-1.5-0.7-1.5-1.5S41.2,92,42,92z M33,95c0-0.6,0.4-1,1-1h1v-1c0-0.6,0.4-1,1-1s1,0.4,1,1v1h1
		c0.6,0,1,0.4,1,1s-0.4,1-1,1h-1v1c0,0.6-0.4,1-1,1s-1-0.4-1-1v-1h-1C33.4,96,33,95.6,33,95z"/>
	<path class="st7" d="M53.7,96.2l-1-0.9c-0.4-0.4-1-0.3-1.4,0.1s-0.3,1,0.1,1.4l0.7,0.6v8.6h-1.7l-2.7-1.8c-0.2-0.1-0.4-0.2-0.6-0.2
		h-6c-0.2,0-0.4,0.1-0.6,0.2l-2.7,1.8H36v-1c0-0.6-0.4-1-1-1s-1,0.4-1,1v2c0,0.6,0.4,1,1,1h3c0.2,0,0.4-0.1,0.6-0.2l2.7-1.8h5.4
		l2.7,1.8c0.2,0.1,0.4,0.2,0.6,0.2h3c0.6,0,1-0.4,1-1V96.9C54,96.6,53.9,96.4,53.7,96.2z"/>
</g>
<g id="party">
	<g>
		<polygon class="st6" points="17,89 7,89 3,91.9 3,102 6,102 9,100 15,100 18,102 21,102 21,91.9 		"/>
		<line class="st6" x1="6" y1="95" x2="10" y2="95"/>
		<line class="st6" x1="8" y1="93" x2="8" y2="97"/>
		<g>
			<path class="st7" d="M14,92c-0.8,0-1.5,0.7-1.5,1.5S13.2,95,14,95s1.5-0.7,1.5-1.5S14.8,92,14,92L14,92z"/>
		</g>
		<g>
			<path class="st7" d="M17,95c-0.8,0-1.5,0.7-1.5,1.5S16.2,98,17,98s1.5-0.7,1.5-1.5S17.8,95,17,95L17,95z"/>
		</g>
	</g>
	<g>
		<polyline class="st6" points="7,105 7,107 10,107 13,105 19,105 22,107 25,107 25,96.9 24,96 		"/>
	</g>
</g>
<g id="clear-on">
	<path class="st9" d="M42,58c-6.6,0-12,5.4-12,12s5.4,12,12,12s12-5.4,12-12S48.6,58,42,58z M46.7,73.3c0.4,0.4,0.4,1,0,1.4
		C46.5,74.9,46.3,75,46,75s-0.5-0.1-0.7-0.3L42,71.4l-3.3,3.3C38.5,74.9,38.3,75,38,75s-0.5-0.1-0.7-0.3c-0.4-0.4-0.4-1,0-1.4
		l3.3-3.3l-3.3-3.3c-0.4-0.4-0.4-1,0-1.4s1-0.4,1.4,0l3.3,3.3l3.3-3.3c0.4-0.4,1-0.4,1.4,0s0.4,1,0,1.4L43.4,70L46.7,73.3z"/>
</g>
<g id="clear">
	<path class="st12" d="M14,58C7.4,58,2,63.4,2,70s5.4,12,12,12s12-5.4,12-12S20.6,58,14,58z M18.7,73.3c0.4,0.4,0.4,1,0,1.4
		C18.5,74.9,18.3,75,18,75s-0.5-0.1-0.7-0.3L14,71.4l-3.3,3.3C10.5,74.9,10.3,75,10,75s-0.5-0.1-0.7-0.3c-0.4-0.4-0.4-1,0-1.4
		l3.3-3.3l-3.3-3.3c-0.4-0.4-0.4-1,0-1.4s1-0.4,1.4,0l3.3,3.3l3.3-3.3c0.4-0.4,1-0.4,1.4,0s0.4,1,0,1.4L15.4,70L18.7,73.3z"/>
</g>
<g id="search">
	<circle class="st4" cx="12" cy="40" r="8"/>
	<line class="st4" x1="24" y1="52" x2="19" y2="47"/>
</g>
<g id="create-chat-group-on">
	<g>
		<circle class="st7" cx="42" cy="8" r="5"/>
		<path class="st7" d="M48.4,16.8c-0.2-0.7-0.4-1.2-0.7-1.5c-0.9-0.9-3.9-1.2-5.7-1.3h-0.1c-1.7,0.1-4.7,0.4-5.7,1.3
			c-0.9,0.9-1.2,3.9-1.3,5.7c0,0.3,0.1,0.6,0.3,0.8c0.1,0.1,2.5,2.3,6.7,2.3c0.7,0,1.5-0.1,2.2-0.2c0.5-0.1,0.8-0.5,0.8-1v-3.3
			c0-0.4,0.3-0.8,0.7-1l2-0.6C48.3,17.8,48.6,17.3,48.4,16.8z"/>
		<g>
			<path class="st6" d="M36,13c-1.7,0-3-1.3-3-3c0-1.3,0.8-2.4,2-2.8"/>
			<path class="st6" d="M36,13c-0.7,0.1-3.4,1.6-3.7,1.9C31.7,15.6,31,19,31,19s0.9,0.8,2,1"/>
			<path class="st6" d="M48,13c1.7,0,3-1.3,3-3c0-1.3-0.8-2.4-2-2.8"/>
			<path class="st6" d="M48,13c0.7,0.1,3.4,1.6,3.7,1.9"/>
		</g>
	</g>
	<g>
		<line class="st6" x1="47" y1="21" x2="53" y2="21"/>
		<line class="st6" x1="50" y1="18" x2="50" y2="24"/>
	</g>
</g>
<g id="create-chat-group">
	<g>
		<circle class="st6" cx="14" cy="8" r="4"/>
		<path class="st6" d="M16,22.8c-0.6,0.1-1.3,0.2-2,0.2c-3.8,0-6-2-6-2s0.2-4.2,1-5s5-1,5-1s4.2,0.2,5,1c0.2,0.2,0.3,0.5,0.5,1"/>
		<g>
			<path class="st6" d="M8,13c-1.7,0-3-1.3-3-3c0-1.3,0.8-2.4,2-2.8"/>
			<path class="st6" d="M8,13c-0.7,0.1-3.4,1.6-3.7,1.9C3.7,15.6,3,19,3,19s0.9,0.8,2,1"/>
			<path class="st6" d="M20,13c1.7,0,3-1.3,3-3c0-1.3-0.8-2.4-2-2.8"/>
			<path class="st6" d="M20,13c0.7,0.1,3.4,1.6,3.7,1.9"/>
		</g>
	</g>
	<g>
		<line class="st6" x1="19" y1="21" x2="25" y2="21"/>
		<line class="st6" x1="22" y1="18" x2="22" y2="24"/>
	</g>
</g>
</svg>
